<?xml version="1.0" encoding="UTF-8"?>
<svg width="700pt" height="700pt" version="1.1" viewBox="0 0 700 700" xmlns="http://www.w3.org/2000/svg" xmlns:xlink="http://www.w3.org/1999/xlink">
 <defs>
  <symbol id="x" overflow="visible">
   <path d="m18.766-1.125c-0.96875 0.5-1.9805 0.875-3.0312 1.125-1.043 0.25781-2.1367 0.39062-3.2812 0.39062-3.3984 0-6.0898-0.94531-8.0781-2.8438-1.9922-1.9062-2.9844-4.4844-2.9844-7.7344 0-3.2578 0.99219-5.8359 2.9844-7.7344 1.9883-1.9062 4.6797-2.8594 8.0781-2.8594 1.1445 0 2.2383 0.13281 3.2812 0.39062 1.0508 0.25 2.0625 0.625 3.0312 1.125v4.2188c-0.98047-0.65625-1.9453-1.1406-2.8906-1.4531-0.94922-0.3125-1.9492-0.46875-3-0.46875-1.875 0-3.3516 0.60547-4.4219 1.8125-1.0742 1.1992-1.6094 2.8555-1.6094 4.9688 0 2.1055 0.53516 3.7617 1.6094 4.9688 1.0703 1.1992 2.5469 1.7969 4.4219 1.7969 1.0508 0 2.0508-0.14844 3-0.45312 0.94531-0.3125 1.9102-0.80078 2.8906-1.4688z"/>
  </symbol>
  <symbol id="d" overflow="visible">
   <path d="m13.734-11.141c-0.4375-0.19531-0.87109-0.34375-1.2969-0.4375-0.41797-0.10156-0.83984-0.15625-1.2656-0.15625-1.2617 0-2.2305 0.40625-2.9062 1.2188-0.67969 0.80469-1.0156 1.9531-1.0156 3.4531v7.0625h-4.8906v-15.312h4.8906v2.5156c0.625-1 1.3438-1.7266 2.1562-2.1875 0.82031-0.46875 1.8008-0.70312 2.9375-0.70312 0.16406 0 0.34375 0.011719 0.53125 0.03125 0.19531 0.011719 0.47656 0.039062 0.84375 0.078125z"/>
  </symbol>
  <symbol id="a" overflow="visible">
   <path d="m17.641-7.7031v1.4062h-11.453c0.125 1.1484 0.53906 2.0078 1.25 2.5781 0.70703 0.57422 1.7031 0.85938 2.9844 0.85938 1.0312 0 2.082-0.14844 3.1562-0.45312 1.082-0.3125 2.1914-0.77344 3.3281-1.3906v3.7656c-1.1562 0.4375-2.3125 0.76562-3.4688 0.98438-1.1562 0.22656-2.3125 0.34375-3.4688 0.34375-2.7734 0-4.9297-0.70312-6.4688-2.1094-1.5312-1.4062-2.2969-3.3789-2.2969-5.9219 0-2.5 0.75391-4.4609 2.2656-5.8906 1.5078-1.4375 3.582-2.1562 6.2188-2.1562 2.4062 0 4.332 0.73047 5.7812 2.1875 1.4453 1.4492 2.1719 3.3828 2.1719 5.7969zm-5.0312-1.625c0-0.92578-0.27344-1.6719-0.8125-2.2344-0.54297-0.57031-1.25-0.85938-2.125-0.85938-0.94922 0-1.7188 0.26562-2.3125 0.79688s-0.96484 1.2969-1.1094 2.2969z"/>
  </symbol>
  <symbol id="l" overflow="visible">
   <path d="m9.2188-6.8906c-1.0234 0-1.793 0.17188-2.3125 0.51562-0.51172 0.34375-0.76562 0.85547-0.76562 1.5312 0 0.625 0.20703 1.1172 0.625 1.4688 0.41406 0.34375 0.98828 0.51562 1.7188 0.51562 0.92578 0 1.7031-0.32812 2.3281-0.98438 0.63281-0.66406 0.95312-1.4922 0.95312-2.4844v-0.5625zm7.4688-1.8438v8.7344h-4.9219v-2.2656c-0.65625 0.92969-1.3984 1.6055-2.2188 2.0312-0.82422 0.41406-1.8242 0.625-3 0.625-1.5859 0-2.8711-0.45703-3.8594-1.375-0.99219-0.92578-1.4844-2.1289-1.4844-3.6094 0-1.7891 0.61328-3.1016 1.8438-3.9375 1.2383-0.84375 3.1797-1.2656 5.8281-1.2656h2.8906v-0.39062c0-0.76953-0.30859-1.332-0.92188-1.6875-0.61719-0.36328-1.5703-0.54688-2.8594-0.54688-1.0547 0-2.0312 0.10547-2.9375 0.3125-0.89844 0.21094-1.7305 0.52344-2.5 0.9375v-3.7344c1.0391-0.25 2.0859-0.44141 3.1406-0.57812 1.0625-0.13281 2.125-0.20312 3.1875-0.20312 2.7578 0 4.75 0.54688 5.9688 1.6406 1.2266 1.0859 1.8438 2.8555 1.8438 5.3125z"/>
  </symbol>
  <symbol id="b" overflow="visible">
   <path d="m7.7031-19.656v4.3438h5.0469v3.5h-5.0469v6.5c0 0.71094 0.14062 1.1875 0.42188 1.4375s0.83594 0.375 1.6719 0.375h2.5156v3.5h-4.1875c-1.9375 0-3.3125-0.39844-4.125-1.2031-0.80469-0.8125-1.2031-2.1797-1.2031-4.1094v-6.5h-2.4219v-3.5h2.4219v-4.3438z"/>
  </symbol>
  <symbol id="k" overflow="visible">
   <path d="m12.766-13.078v-8.2031h4.9219v21.281h-4.9219v-2.2188c-0.66797 0.90625-1.4062 1.5703-2.2188 1.9844s-1.7578 0.625-2.8281 0.625c-1.8867 0-3.4336-0.75-4.6406-2.25-1.2109-1.5-1.8125-3.4258-1.8125-5.7812 0-2.3633 0.60156-4.2969 1.8125-5.7969 1.207-1.5 2.7539-2.25 4.6406-2.25 1.0625 0 2 0.21484 2.8125 0.64062 0.82031 0.42969 1.5664 1.0859 2.2344 1.9688zm-3.2188 9.9219c1.0391 0 1.8359-0.37891 2.3906-1.1406 0.55078-0.76953 0.82812-1.8828 0.82812-3.3438 0-1.457-0.27734-2.5664-0.82812-3.3281-0.55469-0.76953-1.3516-1.1562-2.3906-1.1562-1.043 0-1.8398 0.38672-2.3906 1.1562-0.55469 0.76172-0.82812 1.8711-0.82812 3.3281 0 1.4609 0.27344 2.5742 0.82812 3.3438 0.55078 0.76172 1.3477 1.1406 2.3906 1.1406z"/>
  </symbol>
  <symbol id="j" overflow="visible">
   <path d="m10.5-3.1562c1.0508 0 1.8516-0.37891 2.4062-1.1406 0.55078-0.76953 0.82812-1.8828 0.82812-3.3438 0-1.457-0.27734-2.5664-0.82812-3.3281-0.55469-0.76953-1.3555-1.1562-2.4062-1.1562-1.0547 0-1.8594 0.38672-2.4219 1.1562-0.55469 0.77344-0.82812 1.8828-0.82812 3.3281 0 1.4492 0.27344 2.5586 0.82812 3.3281 0.5625 0.77344 1.3672 1.1562 2.4219 1.1562zm-3.25-9.9219c0.67578-0.88281 1.4219-1.5391 2.2344-1.9688 0.82031-0.42578 1.7656-0.64062 2.8281-0.64062 1.8945 0 3.4453 0.75 4.6562 2.25 1.207 1.5 1.8125 3.4336 1.8125 5.7969 0 2.3555-0.60547 4.2812-1.8125 5.7812-1.2109 1.5-2.7617 2.25-4.6562 2.25-1.0625 0-2.0078-0.21094-2.8281-0.625-0.8125-0.42578-1.5586-1.0859-2.2344-1.9844v2.2188h-4.8906v-21.281h4.8906z"/>
  </symbol>
  <symbol id="i" overflow="visible">
   <path d="m0.34375-15.312h4.8906l4.125 10.391 3.5-10.391h4.8906l-6.4375 16.766c-0.64844 1.6953-1.4023 2.8828-2.2656 3.5625-0.86719 0.6875-2 1.0312-3.4062 1.0312h-2.8438v-3.2188h1.5312c0.83203 0 1.4375-0.13672 1.8125-0.40625 0.38281-0.26172 0.67969-0.73047 0.89062-1.4062l0.14062-0.42188z"/>
  </symbol>
  <symbol id="h" overflow="visible">
   <path d="m2.5781-20.406h5.25v18.422c0 2.5391-0.69531 4.4414-2.0781 5.7031-1.375 1.2578-3.4609 1.8906-6.25 1.8906h-1.0781v-3.9844h0.82812c1.0938 0 1.9219-0.30859 2.4844-0.92188 0.5625-0.60547 0.84375-1.5 0.84375-2.6875z"/>
  </symbol>
  <symbol id="c" overflow="visible">
   <path d="m9.6406-12.188c-1.0859 0-1.9141 0.39062-2.4844 1.1719-0.57422 0.78125-0.85938 1.9062-0.85938 3.375s0.28516 2.5938 0.85938 3.375c0.57031 0.77344 1.3984 1.1562 2.4844 1.1562 1.0625 0 1.875-0.38281 2.4375-1.1562 0.57031-0.78125 0.85938-1.9062 0.85938-3.375s-0.28906-2.5938-0.85938-3.375c-0.5625-0.78125-1.375-1.1719-2.4375-1.1719zm0-3.5c2.6328 0 4.6914 0.71484 6.1719 2.1406 1.4766 1.418 2.2188 3.3867 2.2188 5.9062 0 2.5117-0.74219 4.4805-2.2188 5.9062-1.4805 1.418-3.5391 2.125-6.1719 2.125-2.6484 0-4.7148-0.70703-6.2031-2.125-1.4922-1.4258-2.2344-3.3945-2.2344-5.9062 0-2.5195 0.74219-4.4883 2.2344-5.9062 1.4883-1.4258 3.5547-2.1406 6.2031-2.1406z"/>
  </symbol>
  <symbol id="w" overflow="visible">
   <path d="m14.312-14.828v3.7188c-1.043-0.4375-2.0547-0.76562-3.0312-0.98438-0.98047-0.21875-1.9023-0.32812-2.7656-0.32812-0.92969 0-1.6211 0.11719-2.0781 0.34375-0.44922 0.23047-0.67188 0.58984-0.67188 1.0781 0 0.38672 0.17188 0.68359 0.51562 0.89062 0.34375 0.21094 0.95703 0.36719 1.8438 0.46875l0.85938 0.125c2.5078 0.32422 4.1953 0.85156 5.0625 1.5781 0.86328 0.73047 1.2969 1.8711 1.2969 3.4219 0 1.6367-0.60547 2.8672-1.8125 3.6875-1.1992 0.8125-2.9922 1.2188-5.375 1.2188-1.0234 0-2.0742-0.078125-3.1562-0.23438-1.0742-0.15625-2.1797-0.39453-3.3125-0.71875v-3.7188c0.96875 0.48047 1.9609 0.83984 2.9844 1.0781 1.0312 0.23047 2.0781 0.34375 3.1406 0.34375 0.95703 0 1.6758-0.12891 2.1562-0.39062 0.47656-0.26953 0.71875-0.66406 0.71875-1.1875 0-0.4375-0.16797-0.75781-0.5-0.96875-0.33594-0.21875-0.99609-0.38281-1.9844-0.5l-0.85938-0.10938c-2.1797-0.26953-3.7031-0.77344-4.5781-1.5156-0.875-0.73828-1.3125-1.8594-1.3125-3.3594 0-1.625 0.55078-2.8281 1.6562-3.6094 1.1133-0.78906 2.8203-1.1875 5.125-1.1875 0.89453 0 1.8359 0.074219 2.8281 0.21875 1 0.13672 2.082 0.35156 3.25 0.64062z"/>
  </symbol>
  <symbol id="v" overflow="visible">
   <path d="m2.3594-15.312h4.8906v15.312h-4.8906zm0-5.9688h4.8906v4h-4.8906z"/>
  </symbol>
  <symbol id="u" overflow="visible">
   <path d="m16.781-19.766v4.3125c-1.125-0.5-2.2266-0.875-3.2969-1.125-1.0625-0.25781-2.0703-0.39062-3.0156-0.39062-1.25 0-2.1797 0.17969-2.7812 0.53125-0.60547 0.34375-0.90625 0.88281-0.90625 1.6094 0 0.54297 0.20312 0.96875 0.60938 1.2812 0.40625 0.30469 1.1406 0.5625 2.2031 0.78125l2.25 0.45312c2.2695 0.44922 3.8789 1.1406 4.8281 2.0781 0.95703 0.92969 1.4375 2.2461 1.4375 3.9531 0 2.25-0.66797 3.9297-2 5.0312-1.3359 1.0938-3.3711 1.6406-6.1094 1.6406-1.3047 0-2.6055-0.125-3.9062-0.375-1.3047-0.23828-2.6055-0.59766-3.9062-1.0781v-4.4531c1.3008 0.69922 2.5625 1.2266 3.7812 1.5781 1.2188 0.34375 2.3906 0.51562 3.5156 0.51562 1.1562 0 2.0352-0.1875 2.6406-0.5625 0.61328-0.38281 0.92188-0.9375 0.92188-1.6562 0-0.63281-0.21094-1.125-0.625-1.4688-0.41797-0.34375-1.2461-0.65625-2.4844-0.9375l-2.0312-0.4375c-2.043-0.4375-3.5391-1.1328-4.4844-2.0938-0.9375-0.95703-1.4062-2.25-1.4062-3.875 0-2.0312 0.65625-3.5938 1.9688-4.6875s3.1953-1.6406 5.6562-1.6406c1.125 0 2.2734 0.085938 3.4531 0.25 1.1875 0.16797 2.4141 0.42188 3.6875 0.76562z"/>
  </symbol>
  <symbol id="g" overflow="visible">
   <path d="m14.719-14.828v3.9844c-0.65625-0.45703-1.3242-0.79688-2-1.0156-0.66797-0.21875-1.3594-0.32812-2.0781-0.32812-1.3672 0-2.4336 0.40234-3.2031 1.2031-0.76172 0.79297-1.1406 1.9062-1.1406 3.3438 0 1.4297 0.37891 2.543 1.1406 3.3438 0.76953 0.79297 1.8359 1.1875 3.2031 1.1875 0.75781 0 1.4844-0.10938 2.1719-0.32812 0.6875-0.22656 1.3203-0.56641 1.9062-1.0156v4c-0.76172 0.28125-1.5391 0.48828-2.3281 0.625-0.78125 0.14453-1.5742 0.21875-2.375 0.21875-2.7617 0-4.9219-0.70703-6.4844-2.125-1.5547-1.4141-2.3281-3.3828-2.3281-5.9062 0-2.5312 0.77344-4.5039 2.3281-5.9219 1.5625-1.4141 3.7227-2.125 6.4844-2.125 0.80078 0 1.5938 0.074219 2.375 0.21875 0.78125 0.13672 1.5547 0.35156 2.3281 0.64062z"/>
  </symbol>
  <symbol id="f" overflow="visible">
   <path d="m17.75-9.3281v9.3281h-4.9219v-7.1094c0-1.3438-0.03125-2.2656-0.09375-2.7656s-0.16797-0.86719-0.3125-1.1094c-0.1875-0.3125-0.44922-0.55469-0.78125-0.73438-0.32422-0.17578-0.69531-0.26562-1.1094-0.26562-1.0234 0-1.8242 0.39844-2.4062 1.1875-0.58594 0.78125-0.875 1.8711-0.875 3.2656v7.5312h-4.8906v-21.281h4.8906v8.2031c0.73828-0.88281 1.5195-1.5391 2.3438-1.9688 0.83203-0.42578 1.75-0.64062 2.75-0.64062 1.7695 0 3.1133 0.54688 4.0312 1.6406 0.91406 1.0859 1.375 2.6562 1.375 4.7188z"/>
  </symbol>
  <symbol id="e" overflow="visible">
   <path d="m2.1875-5.9688v-9.3438h4.9219v1.5312c0 0.83594-0.007813 1.875-0.015625 3.125-0.011719 1.25-0.015625 2.0859-0.015625 2.5 0 1.2422 0.03125 2.1328 0.09375 2.6719 0.070313 0.54297 0.17969 0.93359 0.32812 1.1719 0.20703 0.32422 0.47266 0.57422 0.79688 0.75 0.32031 0.16797 0.69141 0.25 1.1094 0.25 1.0195 0 1.8203-0.39062 2.4062-1.1719 0.58203-0.78125 0.875-1.8672 0.875-3.2656v-7.5625h4.8906v15.312h-4.8906v-2.2188c-0.74219 0.89844-1.5234 1.5586-2.3438 1.9844-0.82422 0.41406-1.7344 0.625-2.7344 0.625-1.7617 0-3.1055-0.53906-4.0312-1.625-0.92969-1.082-1.3906-2.6602-1.3906-4.7344z"/>
  </symbol>
  <symbol id="t" overflow="visible">
   <path d="m2.3594-21.281h4.8906v21.281h-4.8906z"/>
  </symbol>
  <symbol id="s" overflow="visible">
   <path d="m1.5938-15.312h13.359v3.4219l-8.0625 8.3906h8.0625v3.5h-13.688v-3.4219l8.0625-8.3906h-7.7344z"/>
  </symbol>
  <symbol id="r" overflow="visible">
   <path d="m12.422-21.281v3.2188h-2.7031c-0.6875 0-1.1719 0.125-1.4531 0.375-0.27344 0.25-0.40625 0.6875-0.40625 1.3125v1.0625h4.1875v3.5h-4.1875v11.812h-4.8906v-11.812h-2.4375v-3.5h2.4375v-1.0625c0-1.6641 0.46094-2.8984 1.3906-3.7031 0.92578-0.80078 2.3672-1.2031 4.3281-1.2031z"/>
  </symbol>
  <symbol id="q" overflow="visible">
   <path d="m16.547-12.766c0.61328-0.94531 1.3477-1.6719 2.2031-2.1719 0.85156-0.5 1.7891-0.75 2.8125-0.75 1.7578 0 3.0977 0.54688 4.0156 1.6406 0.92578 1.0859 1.3906 2.6562 1.3906 4.7188v9.3281h-4.9219v-7.9844-0.35938c0.007813-0.13281 0.015625-0.32031 0.015625-0.5625 0-1.082-0.16406-1.8633-0.48438-2.3438-0.3125-0.48828-0.82422-0.73438-1.5312-0.73438-0.92969 0-1.6484 0.38672-2.1562 1.1562-0.51172 0.76172-0.77344 1.8672-0.78125 3.3125v7.5156h-4.9219v-7.9844c0-1.6953-0.14844-2.7852-0.4375-3.2656-0.29297-0.48828-0.8125-0.73438-1.5625-0.73438-0.9375 0-1.6641 0.38672-2.1719 1.1562-0.51172 0.76172-0.76562 1.8594-0.76562 3.2969v7.5312h-4.9219v-15.312h4.9219v2.2344c0.60156-0.86328 1.2891-1.5156 2.0625-1.9531 0.78125-0.4375 1.6406-0.65625 2.5781-0.65625 1.0625 0 2 0.25781 2.8125 0.76562 0.8125 0.51172 1.4258 1.2305 1.8438 2.1562z"/>
  </symbol>
  <symbol id="p" overflow="visible">
   <path d="m2.5781-20.406h5.875l7.4219 14v-14h4.9844v20.406h-5.875l-7.4219-14v14h-4.9844z"/>
  </symbol>
  <symbol id="o" overflow="visible">
   <path d="m17.75-9.3281v9.3281h-4.9219v-7.1406c0-1.3203-0.03125-2.2344-0.09375-2.7344s-0.16797-0.86719-0.3125-1.1094c-0.1875-0.3125-0.44922-0.55469-0.78125-0.73438-0.32422-0.17578-0.69531-0.26562-1.1094-0.26562-1.0234 0-1.8242 0.39844-2.4062 1.1875-0.58594 0.78125-0.875 1.8711-0.875 3.2656v7.5312h-4.8906v-15.312h4.8906v2.2344c0.73828-0.88281 1.5195-1.5391 2.3438-1.9688 0.83203-0.42578 1.75-0.64062 2.75-0.64062 1.7695 0 3.1133 0.54688 4.0312 1.6406 0.91406 1.0859 1.375 2.6562 1.375 4.7188z"/>
  </symbol>
  <symbol id="n" overflow="visible">
   <path d="m2.5781-20.406h8.7344c2.5938 0 4.582 0.57812 5.9688 1.7344 1.3945 1.1484 2.0938 2.7891 2.0938 4.9219 0 2.1367-0.69922 3.7812-2.0938 4.9375-1.3867 1.1562-3.375 1.7344-5.9688 1.7344h-3.4844v7.0781h-5.25zm5.25 3.8125v5.7031h2.9219c1.0195 0 1.8047-0.25 2.3594-0.75 0.5625-0.5 0.84375-1.2031 0.84375-2.1094 0-0.91406-0.28125-1.6172-0.84375-2.1094-0.55469-0.48828-1.3398-0.73438-2.3594-0.73438z"/>
  </symbol>
  <symbol id="m" overflow="visible">
   <path d="m2.3594-15.312h4.8906v15.031c0 2.0508-0.49609 3.6172-1.4844 4.7031-0.98047 1.082-2.4062 1.625-4.2812 1.625h-2.4219v-3.2188h0.85938c0.92578 0 1.5625-0.21094 1.9062-0.625 0.35156-0.41797 0.53125-1.2461 0.53125-2.4844zm0-5.9688h4.8906v4h-4.8906z"/>
  </symbol>
 </defs>
 <g>
  <path d="m519.43 536.88c-2.0781 0-4.0781-1.1602-5.0391-3.1523-17-35-28.223-53.984-56.734-75.234-11.789-3.1641-77.105-22.266-72.621-55.559 0.51953-3.8359 2.6367-6.8281 5.957-8.4219 2.0273-0.97266 4.4844-1.332 7.332-1.1914-17.02-12.797-35.945-27.211-45.383-34.984-10.852-8.9375-28.777-25.906-26.828-39.105 0.85156-5.7734 3.8594-10.008 8.4688-11.91 7.6055-3.1367 18.109 0.39844 32.109 10.832 6.7422 5.0234 14.973 11.434 23.273 17.91 7.9648 6.2031 17.535 13.664 25.234 19.375-3.4648-5.6797-7.6836-12.617-11.93-20.531-2.8828-5.3867-5.8672-10.781-8.7695-16.027-12.59-22.758-20.34-37.18-20.957-46.453-0.54688-8.1758 4.0156-18.504 12.324-20.922 5.6016-1.6289 14.035-0.3125 22.488 15.16 3.8359 7.0234 8.4297 14.895 13.289 23.23 9.75 16.711 20.574 35.262 27.832 51.457 2.5469-2.7773 5.9141-5.4102 10.191-6.7773 5.4883-1.7578 11.328-1.1602 17.383 1.7578 3.6523-4.5859 10.191-10.922 18.832-11.531 7.5156-0.55469 14.461 3.293 20.727 11.324 16.695 21.398 33.23 58.379 30.297 98.648 5.957 7.7266 31.199 40.438 57.691 74.387 1.9023 2.4414 1.4727 5.9531-0.96875 7.8555-2.4453 1.9023-5.957 1.4727-7.8555-0.96875-30.352-38.891-59.059-76.16-59.059-76.16-0.86328-1.1133-1.2695-2.5156-1.1406-3.9219 3.4258-37.879-12.105-72.855-27.789-92.961-3.8398-4.918-7.6875-7.2812-11.09-7.043-5.9453 0.39844-11.504 7.7656-13.137 10.574-0.77734 1.332-2.0781 2.2969-3.5898 2.6484-1.5 0.33984-3.0977 0.054688-4.375-0.80078-4.7773-3.2031-8.9727-4.2617-12.48-3.1641-5.1953 1.6289-8.6367 7.8867-9.5195 10.16-0.83984 2.1523-2.918 3.5781-5.2266 3.5781h-0.054688c-2.3281-0.027344-4.4023-1.4727-5.207-3.6562-6.3555-17.297-19.523-39.867-31.141-59.781-4.8984-8.4062-9.5312-16.34-13.445-23.504-4.6758-8.5586-8.2891-10.137-9.5195-9.7734-2.1055 0.60938-4.5586 5.293-4.2852 9.4258 0.48047 7.2539 10.188 24.801 19.578 41.77 2.9219 5.293 5.9375 10.73 8.8477 16.16 4.3242 8.0703 8.6797 15.191 12.176 20.906 6.8984 11.289 9.7539 15.961 8.3672 20.305-0.58203 1.8242-1.9336 3.3047-3.6914 4.0586-4.7031 2.0117-8.2891 0.125-46.918-29.988-8.2383-6.418-16.391-12.773-23.082-17.762-15.262-11.375-20.59-9.6836-21.141-9.4531-0.83984 0.34766-1.3984 1.4219-1.6641 3.1992-0.75 5.0781 9.082 17.473 22.871 28.816 18.84 15.523 78.316 59.551 78.914 59.992 2.4023 1.7734 2.9844 5.1289 1.3203 7.6094-1.6641 2.4805-4.9766 3.2422-7.543 1.6875-15.676-9.4297-33.285-16.301-36.922-14.363-2.5195 20.727 47.828 38.672 65.688 43.316 0.69531 0.17969 1.3438 0.49219 1.9219 0.91406 32.223 23.781 44.547 46.082 61.012 79.992 1.3477 2.7773 0.19141 6.1328-2.5938 7.4805-0.77734 0.39062-1.6094 0.57031-2.4258 0.57031z"/>
  <path d="m262.43 323.88c-9.9062 0-19.777-1.1641-27.41-2.6211-9.5156-1.8086-22.008-5.8359-34.094-9.7227-14.234-4.582-28.945-9.3203-38.109-10.254-3.707-0.38672-31.371 2.0039-47.898 3.4375-6.3672 0.54688-12.156 1.0469-16.48 1.3945-3.0898 0.19141-5.7852-2.0508-6.0273-5.1367-0.24219-3.082 2.0586-5.7812 5.1367-6.0273 4.3008-0.34766 10.07-0.83984 16.406-1.3906 26.488-2.2773 45.574-3.8516 49.996-3.4219 10.336 1.0547 25.625 5.9766 40.402 10.734 11.762 3.793 23.922 7.707 32.754 9.3867 23.078 4.3945 50.898 3.1367 55.609-6.5859 0.60547-1.2422 0.55469-1.7695 0.55469-1.7734-1.3438-1.9766-9.1953-2.8672-23.426-2.8906-1.6289 0.015625-3.1094 0.015625-4.3555 0.003906-0.22266-0.003906-22.23-0.89062-25.949-9.8945-1.2305-2.9805-0.48828-6.2812 2-8.832 4.6016-4.7266 13.758-5.125 26.438-5.6797 8.5-0.37109 18.129-0.78906 25.137-2.832 2.418-0.70703 4.9336-1.3945 7.4688-2.0898 9.168-2.5078 26.23-7.1797 26.086-11.543-0.039063-1.2773-0.4375-1.793-0.8125-2.1289-1.5117-1.3477-4.8789-1.5898-6.5195-1.5195-4.4258 0.85156-44.816 8.4375-63.117 8.2539-4.3164-0.050781-13.793-5.6211-14.59-11.969-0.41016-3.2812 1.2109-7.3398 6.9883-8.8867 3.3867-0.90625 9.0898-3.0508 15.688-5.5391 11.898-4.4844 28.195-10.625 45.137-14.914 16.055-4.0664 19.594-9.0312 20.371-10.977 0.78516-1.9766-0.16406-3.5625-0.27344-3.7344-0.27344-0.4375-0.58984-1.0547-0.73438-1.5508-0.70703-2.3672-1.6758-3.1133-2.5273-3.5273-2.1992-1.0703-8.3672-1.8867-24.949 4.6367-14.875 5.8516-64.055 24.102-72.598 13.574-1.8125-2.2383-2.4023-4.9727-1.6523-7.6875 1.9727-7.1172 13.363-12.551 31.098-19.008l1.2266-0.44922c11.871-4.3438 38.496-22.188 38.254-27.934-0.085937-2.0039-1.0586-3.4766-2.9844-4.4844-3.5898-1.8867-10.914-2.1055-19.789 3.4766-3.1133 1.9531-7.3477 4.8047-12.242 8.0977-16.289 10.961-38.594 25.969-52.953 30.934-7.0391 2.4414-14.75 4.2578-18.496-0.75-2.6484-3.5273-1.3398-7.9531 0.76563-10.914 0.46094-0.66797 12.465-18.109 20.324-27.934 6.1875-7.7344 8.9258-14.461 8.5117-16.285-0.078125 0.0625-0.81641-0.21875-2.6484-0.21875-0.41016 0-0.875 0.011719-1.3984 0.042969-22.578 1.5078-42.203 43.059-47.852 58.941-0.27344 0.76562-0.71094 1.4688-1.2812 2.0508-6.0312 6.1445-50.191 24.422-68.719 27.453-3.0469 0.50391-5.9375-1.5664-6.4297-4.6211-0.5-3.0508 1.5664-5.9297 4.6211-6.4297 17.734-2.9062 54.965-19.129 61.812-23.715 3.7539-9.9414 25.156-62.719 57.102-64.848 9.1953-0.59766 13.094 3 14.727 6.1484 4.4961 8.6055-4.1484 21.539-9.6992 28.477-5.1367 6.418-12.355 16.559-16.531 22.523 0.47656-0.15234 0.98438-0.32031 1.5273-0.50781 12.98-4.4922 35.477-19.629 50.367-29.645 5.0078-3.3711 9.3477-6.2891 12.531-8.2891 10.785-6.7773 22.645-8.2812 30.957-3.9102 5.4414 2.8633 8.707 7.9336 8.9609 13.926 0.76172 18.188-45.125 38.746-45.59 38.922l-1.2539 0.46094c-10.039 3.6523-15.992 6.332-19.504 8.2617 12.438-1.668 38.629-9.7539 54.723-16.09 16.348-6.4336 26.82-7.7578 33.945-4.2852 3.875 1.8867 6.6094 5.1367 8.125 9.6641 1.1484 2.0156 3.2656 6.9375 1.0742 12.938-2.9336 8.0352-12.422 14.129-28.191 18.121-16.328 4.1328-32.285 10.148-43.934 14.539-4.7031 1.7695-8.7578 3.2969-12.105 4.4336 0.23438 0.11719 0.44141 0.21094 0.62891 0.27344h0.3125c18.336 0 60.031-8.0352 60.457-8.1211 1.5117-0.16406 10.07-0.80078 15.703 4.1602 2.8789 2.543 4.4727 6.0586 4.6133 10.168 0.44141 13.203-17.23 18.043-34.324 22.719-2.4766 0.67578-4.9336 1.3477-7.2969 2.0391-8.3047 2.4258-18.652 2.8711-27.781 3.2695-3.5664 0.15234-8.0977 0.34766-11.871 0.74609 3.2148 0.71094 6.7461 1.2383 9.0664 1.2695 1.1758 0.011719 2.5742 0.011719 4.1172-0.003907 14.59-0.0625 28.105 0.45313 33.02 8.2266 1.5664 2.4883 2.8438 6.6758 0.011718 12.527-5.6914 11.789-23.07 15.34-40.355 15.34z"/>
  <path d="m592.36 21.102c-2.6992-1.5195-6.1211-0.54297-7.6172 2.1602-24.426 43.781-53.145 96.758-53.43 97.289-0.35938 0.66016-0.58203 1.3828-0.64844 2.1289-4.2734 44.012-20.973 70.688-39.184 96.344-5.2148 7.3477-11.828 11.594-18.633 11.961-4.75 0.25781-8.2812-1.4492-10.098-3.1602-0.089844-1.6367 0.93359-5.6953 2.2734-8.8633 1.0469-2.4688 0.18359-5.3359-2.0391-6.832-2.2305-1.4961-5.2148-1.1914-7.0938 0.70703-9.3008 9.3906-17.938 13.059-24.293 10.344-4.4805-1.9102-6.7773-6.6367-6.707-9.3125 0.078125-2.0273 3.4336-9.5742 7.1914-16.168 1.3945-2.4531 0.74609-5.5625-1.5195-7.2539-2.2617-1.6914-5.4375-1.4336-7.3906 0.60547-0.16797 0.17188-17.199 17.367-25.996 9.4297-8.9102-8.0352-1.6172-18.195-0.77734-19.305 1.6562-2.1289 1.5586-5.1367-0.23047-7.1562-1.793-2.0273-4.7773-2.4648-7.0781-1.082-3.2812 1.9727-14.129 7.1641-20.707 5.3477-1.9336-0.53906-3.2305-1.6133-4.2188-3.4883-3.6289-6.8945 3.7695-14.789 9.1289-19.309l36.203-20.367c2.6953-1.5195 3.6523-4.9297 2.1328-7.6289-1.5195-2.6953-4.9297-3.6562-7.6211-2.1328l-28.805 16.199c-1.0352-0.011719-2.0781 0.16797-3.0195 0.75781-0.53906 0.33984-1.1016 0.71875-1.6641 1.1016-3.9258-4.832-3.1484-8.0195-2.8438-9.1992 4.2461-16.25 52.078-32.484 81.234-38.898 0.82813-0.18359 1.6133-0.55469 2.2773-1.082 17.289-13.719 35.012-35.004 52.68-63.258 1.6406-2.6211 0.83984-6.0742-1.7734-7.7188-2.625-1.6523-6.082-0.83984-7.7188 1.7734-16.648 26.617-33.188 46.672-49.156 59.629-12.828 2.918-81.312 19.668-88.375 46.715-1.2383 4.7422-1.0547 11.625 5.125 19.195-7.6211 7.7852-13.453 18.547-7.7188 29.43 2.4023 4.5625 6.2422 7.6992 11.109 9.0625 5.3633 1.4883 11.273 0.66797 16.398-0.83594-0.85547 6.5898 0.73438 14.086 7.9062 20.559 7.3398 6.6133 16.25 5.9258 24.32 2.3984-0.17969 0.86719-0.29297 1.6797-0.30859 2.4023-0.16797 6.9492 4.4258 16.012 13.523 19.887 4.7422 2.0156 13.344 3.5938 24.617-3.1211 0.33594 1.6641 0.99609 3.1914 2.1094 4.4531 4.1602 4.6875 10.793 7.3984 17.961 7.3984 0.51562 0 1.0352-0.011719 1.5508-0.039062 10.281-0.55859 19.93-6.4727 27.16-16.664 18.969-26.719 36.379-54.531 41.086-100.61 4.0586-7.4805 30.273-55.766 52.824-96.176 1.5234-2.7031 0.55469-6.1172-2.1484-7.6211z"/>
  <use x="70" y="644" xlink:href="#x"/>
  <use x="90.550781" y="644" xlink:href="#d"/>
  <use x="104.359375" y="644" xlink:href="#a"/>
  <use x="123.347656" y="644" xlink:href="#l"/>
  <use x="142.242188" y="644" xlink:href="#b"/>
  <use x="155.628906" y="644" xlink:href="#a"/>
  <use x="174.617188" y="644" xlink:href="#k"/>
  <use x="204.410156" y="644" xlink:href="#j"/>
  <use x="224.453125" y="644" xlink:href="#i"/>
  <use x="252.453125" y="644" xlink:href="#h"/>
  <use x="262.867188" y="644" xlink:href="#c"/>
  <use x="282.105469" y="644" xlink:href="#w"/>
  <use x="298.773438" y="644" xlink:href="#v"/>
  <use x="308.367188" y="644" xlink:href="#a"/>
  <use x="337.109375" y="644" xlink:href="#u"/>
  <use x="357.273438" y="644" xlink:href="#g"/>
  <use x="373.871094" y="644" xlink:href="#f"/>
  <use x="393.804688" y="644" xlink:href="#e"/>
  <use x="413.738281" y="644" xlink:href="#t"/>
  <use x="423.335938" y="644" xlink:href="#b"/>
  <use x="436.71875" y="644" xlink:href="#s"/>
  <use x="70" y="672" xlink:href="#r"/>
  <use x="82.183594" y="672" xlink:href="#d"/>
  <use x="95.992188" y="672" xlink:href="#c"/>
  <use x="115.226562" y="672" xlink:href="#q"/>
  <use x="154.152344" y="672" xlink:href="#b"/>
  <use x="167.535156" y="672" xlink:href="#f"/>
  <use x="187.46875" y="672" xlink:href="#a"/>
  <use x="216.207031" y="672" xlink:href="#p"/>
  <use x="239.640625" y="672" xlink:href="#c"/>
  <use x="258.878906" y="672" xlink:href="#e"/>
  <use x="278.8125" y="672" xlink:href="#o"/>
  <use x="308.492188" y="672" xlink:href="#n"/>
  <use x="329.015625" y="672" xlink:href="#d"/>
  <use x="342.820312" y="672" xlink:href="#c"/>
  <use x="362.058594" y="672" xlink:href="#m"/>
  <use x="371.65625" y="672" xlink:href="#a"/>
  <use x="390.648438" y="672" xlink:href="#g"/>
  <use x="407.242188" y="672" xlink:href="#b"/>
 </g>
</svg>
