<?xml version="1.0" encoding="UTF-8"?>
<svg width="700pt" height="700pt" version="1.1" viewBox="0 0 700 700" xmlns="http://www.w3.org/2000/svg" xmlns:xlink="http://www.w3.org/1999/xlink">
 <defs>
  <symbol id="j" overflow="visible">
   <path d="m18.766-1.125c-0.96875 0.5-1.9805 0.875-3.0312 1.125-1.043 0.25781-2.1367 0.39062-3.2812 0.39062-3.3984 0-6.0898-0.94531-8.0781-2.8438-1.9922-1.9062-2.9844-4.4844-2.9844-7.7344 0-3.2578 0.99219-5.8359 2.9844-7.7344 1.9883-1.9062 4.6797-2.8594 8.0781-2.8594 1.1445 0 2.2383 0.13281 3.2812 0.39062 1.0508 0.25 2.0625 0.625 3.0312 1.125v4.2188c-0.98047-0.65625-1.9453-1.1406-2.8906-1.4531-0.94922-0.3125-1.9492-0.46875-3-0.46875-1.875 0-3.3516 0.60547-4.4219 1.8125-1.0742 1.1992-1.6094 2.8555-1.6094 4.9688 0 2.1055 0.53516 3.7617 1.6094 4.9688 1.0703 1.1992 2.5469 1.7969 4.4219 1.7969 1.0508 0 2.0508-0.14844 3-0.45312 0.94531-0.3125 1.9102-0.80078 2.8906-1.4688z"/>
  </symbol>
  <symbol id="d" overflow="visible">
   <path d="m13.734-11.141c-0.4375-0.19531-0.87109-0.34375-1.2969-0.4375-0.41797-0.10156-0.83984-0.15625-1.2656-0.15625-1.2617 0-2.2305 0.40625-2.9062 1.2188-0.67969 0.80469-1.0156 1.9531-1.0156 3.4531v7.0625h-4.8906v-15.312h4.8906v2.5156c0.625-1 1.3438-1.7266 2.1562-2.1875 0.82031-0.46875 1.8008-0.70312 2.9375-0.70312 0.16406 0 0.34375 0.011719 0.53125 0.03125 0.19531 0.011719 0.47656 0.039062 0.84375 0.078125z"/>
  </symbol>
  <symbol id="a" overflow="visible">
   <path d="m17.641-7.7031v1.4062h-11.453c0.125 1.1484 0.53906 2.0078 1.25 2.5781 0.70703 0.57422 1.7031 0.85938 2.9844 0.85938 1.0312 0 2.082-0.14844 3.1562-0.45312 1.082-0.3125 2.1914-0.77344 3.3281-1.3906v3.7656c-1.1562 0.4375-2.3125 0.76562-3.4688 0.98438-1.1562 0.22656-2.3125 0.34375-3.4688 0.34375-2.7734 0-4.9297-0.70312-6.4688-2.1094-1.5312-1.4062-2.2969-3.3789-2.2969-5.9219 0-2.5 0.75391-4.4609 2.2656-5.8906 1.5078-1.4375 3.582-2.1562 6.2188-2.1562 2.4062 0 4.332 0.73047 5.7812 2.1875 1.4453 1.4492 2.1719 3.3828 2.1719 5.7969zm-5.0312-1.625c0-0.92578-0.27344-1.6719-0.8125-2.2344-0.54297-0.57031-1.25-0.85938-2.125-0.85938-0.94922 0-1.7188 0.26562-2.3125 0.79688s-0.96484 1.2969-1.1094 2.2969z"/>
  </symbol>
  <symbol id="n" overflow="visible">
   <path d="m9.2188-6.8906c-1.0234 0-1.793 0.17188-2.3125 0.51562-0.51172 0.34375-0.76562 0.85547-0.76562 1.5312 0 0.625 0.20703 1.1172 0.625 1.4688 0.41406 0.34375 0.98828 0.51562 1.7188 0.51562 0.92578 0 1.7031-0.32812 2.3281-0.98438 0.63281-0.66406 0.95312-1.4922 0.95312-2.4844v-0.5625zm7.4688-1.8438v8.7344h-4.9219v-2.2656c-0.65625 0.92969-1.3984 1.6055-2.2188 2.0312-0.82422 0.41406-1.8242 0.625-3 0.625-1.5859 0-2.8711-0.45703-3.8594-1.375-0.99219-0.92578-1.4844-2.1289-1.4844-3.6094 0-1.7891 0.61328-3.1016 1.8438-3.9375 1.2383-0.84375 3.1797-1.2656 5.8281-1.2656h2.8906v-0.39062c0-0.76953-0.30859-1.332-0.92188-1.6875-0.61719-0.36328-1.5703-0.54688-2.8594-0.54688-1.0547 0-2.0312 0.10547-2.9375 0.3125-0.89844 0.21094-1.7305 0.52344-2.5 0.9375v-3.7344c1.0391-0.25 2.0859-0.44141 3.1406-0.57812 1.0625-0.13281 2.125-0.20312 3.1875-0.20312 2.7578 0 4.75 0.54688 5.9688 1.6406 1.2266 1.0859 1.8438 2.8555 1.8438 5.3125z"/>
  </symbol>
  <symbol id="c" overflow="visible">
   <path d="m7.7031-19.656v4.3438h5.0469v3.5h-5.0469v6.5c0 0.71094 0.14062 1.1875 0.42188 1.4375s0.83594 0.375 1.6719 0.375h2.5156v3.5h-4.1875c-1.9375 0-3.3125-0.39844-4.125-1.2031-0.80469-0.8125-1.2031-2.1797-1.2031-4.1094v-6.5h-2.4219v-3.5h2.4219v-4.3438z"/>
  </symbol>
  <symbol id="e" overflow="visible">
   <path d="m12.766-13.078v-8.2031h4.9219v21.281h-4.9219v-2.2188c-0.66797 0.90625-1.4062 1.5703-2.2188 1.9844s-1.7578 0.625-2.8281 0.625c-1.8867 0-3.4336-0.75-4.6406-2.25-1.2109-1.5-1.8125-3.4258-1.8125-5.7812 0-2.3633 0.60156-4.2969 1.8125-5.7969 1.207-1.5 2.7539-2.25 4.6406-2.25 1.0625 0 2 0.21484 2.8125 0.64062 0.82031 0.42969 1.5664 1.0859 2.2344 1.9688zm-3.2188 9.9219c1.0391 0 1.8359-0.37891 2.3906-1.1406 0.55078-0.76953 0.82812-1.8828 0.82812-3.3438 0-1.457-0.27734-2.5664-0.82812-3.3281-0.55469-0.76953-1.3516-1.1562-2.3906-1.1562-1.043 0-1.8398 0.38672-2.3906 1.1562-0.55469 0.76172-0.82812 1.8711-0.82812 3.3281 0 1.4609 0.27344 2.5742 0.82812 3.3438 0.55078 0.76172 1.3477 1.1406 2.3906 1.1406z"/>
  </symbol>
  <symbol id="m" overflow="visible">
   <path d="m10.5-3.1562c1.0508 0 1.8516-0.37891 2.4062-1.1406 0.55078-0.76953 0.82812-1.8828 0.82812-3.3438 0-1.457-0.27734-2.5664-0.82812-3.3281-0.55469-0.76953-1.3555-1.1562-2.4062-1.1562-1.0547 0-1.8594 0.38672-2.4219 1.1562-0.55469 0.77344-0.82812 1.8828-0.82812 3.3281 0 1.4492 0.27344 2.5586 0.82812 3.3281 0.5625 0.77344 1.3672 1.1562 2.4219 1.1562zm-3.25-9.9219c0.67578-0.88281 1.4219-1.5391 2.2344-1.9688 0.82031-0.42578 1.7656-0.64062 2.8281-0.64062 1.8945 0 3.4453 0.75 4.6562 2.25 1.207 1.5 1.8125 3.4336 1.8125 5.7969 0 2.3555-0.60547 4.2812-1.8125 5.7812-1.2109 1.5-2.7617 2.25-4.6562 2.25-1.0625 0-2.0078-0.21094-2.8281-0.625-0.8125-0.42578-1.5586-1.0859-2.2344-1.9844v2.2188h-4.8906v-21.281h4.8906z"/>
  </symbol>
  <symbol id="l" overflow="visible">
   <path d="m0.34375-15.312h4.8906l4.125 10.391 3.5-10.391h4.8906l-6.4375 16.766c-0.64844 1.6953-1.4023 2.8828-2.2656 3.5625-0.86719 0.6875-2 1.0312-3.4062 1.0312h-2.8438v-3.2188h1.5312c0.83203 0 1.4375-0.13672 1.8125-0.40625 0.38281-0.26172 0.67969-0.73047 0.89062-1.4062l0.14062-0.42188z"/>
  </symbol>
  <symbol id="k" overflow="visible">
   <path d="m16.781-19.766v4.3125c-1.125-0.5-2.2266-0.875-3.2969-1.125-1.0625-0.25781-2.0703-0.39062-3.0156-0.39062-1.25 0-2.1797 0.17969-2.7812 0.53125-0.60547 0.34375-0.90625 0.88281-0.90625 1.6094 0 0.54297 0.20312 0.96875 0.60938 1.2812 0.40625 0.30469 1.1406 0.5625 2.2031 0.78125l2.25 0.45312c2.2695 0.44922 3.8789 1.1406 4.8281 2.0781 0.95703 0.92969 1.4375 2.2461 1.4375 3.9531 0 2.25-0.66797 3.9297-2 5.0312-1.3359 1.0938-3.3711 1.6406-6.1094 1.6406-1.3047 0-2.6055-0.125-3.9062-0.375-1.3047-0.23828-2.6055-0.59766-3.9062-1.0781v-4.4531c1.3008 0.69922 2.5625 1.2266 3.7812 1.5781 1.2188 0.34375 2.3906 0.51562 3.5156 0.51562 1.1562 0 2.0352-0.1875 2.6406-0.5625 0.61328-0.38281 0.92188-0.9375 0.92188-1.6562 0-0.63281-0.21094-1.125-0.625-1.4688-0.41797-0.34375-1.2461-0.65625-2.4844-0.9375l-2.0312-0.4375c-2.043-0.4375-3.5391-1.1328-4.4844-2.0938-0.9375-0.95703-1.4062-2.25-1.4062-3.875 0-2.0312 0.65625-3.5938 1.9688-4.6875s3.1953-1.6406 5.6562-1.6406c1.125 0 2.2734 0.085938 3.4531 0.25 1.1875 0.16797 2.4141 0.42188 3.6875 0.76562z"/>
  </symbol>
  <symbol id="i" overflow="visible">
   <path d="m2.3594-15.312h4.8906v15.312h-4.8906zm0-5.9688h4.8906v4h-4.8906z"/>
  </symbol>
  <symbol id="h" overflow="visible">
   <path d="m16.547-12.766c0.61328-0.94531 1.3477-1.6719 2.2031-2.1719 0.85156-0.5 1.7891-0.75 2.8125-0.75 1.7578 0 3.0977 0.54688 4.0156 1.6406 0.92578 1.0859 1.3906 2.6562 1.3906 4.7188v9.3281h-4.9219v-7.9844-0.35938c0.007813-0.13281 0.015625-0.32031 0.015625-0.5625 0-1.082-0.16406-1.8633-0.48438-2.3438-0.3125-0.48828-0.82422-0.73438-1.5312-0.73438-0.92969 0-1.6484 0.38672-2.1562 1.1562-0.51172 0.76172-0.77344 1.8672-0.78125 3.3125v7.5156h-4.9219v-7.9844c0-1.6953-0.14844-2.7852-0.4375-3.2656-0.29297-0.48828-0.8125-0.73438-1.5625-0.73438-0.9375 0-1.6641 0.38672-2.1719 1.1562-0.51172 0.76172-0.76562 1.8594-0.76562 3.2969v7.5312h-4.9219v-15.312h4.9219v2.2344c0.60156-0.86328 1.2891-1.5156 2.0625-1.9531 0.78125-0.4375 1.6406-0.65625 2.5781-0.65625 1.0625 0 2 0.25781 2.8125 0.76562 0.8125 0.51172 1.4258 1.2305 1.8438 2.1562z"/>
  </symbol>
  <symbol id="b" overflow="visible">
   <path d="m9.6406-12.188c-1.0859 0-1.9141 0.39062-2.4844 1.1719-0.57422 0.78125-0.85938 1.9062-0.85938 3.375s0.28516 2.5938 0.85938 3.375c0.57031 0.77344 1.3984 1.1562 2.4844 1.1562 1.0625 0 1.875-0.38281 2.4375-1.1562 0.57031-0.78125 0.85938-1.9062 0.85938-3.375s-0.28906-2.5938-0.85938-3.375c-0.5625-0.78125-1.375-1.1719-2.4375-1.1719zm0-3.5c2.6328 0 4.6914 0.71484 6.1719 2.1406 1.4766 1.418 2.2188 3.3867 2.2188 5.9062 0 2.5117-0.74219 4.4805-2.2188 5.9062-1.4805 1.418-3.5391 2.125-6.1719 2.125-2.6484 0-4.7148-0.70703-6.2031-2.125-1.4922-1.4258-2.2344-3.3945-2.2344-5.9062 0-2.5195 0.74219-4.4883 2.2344-5.9062 1.4883-1.4258 3.5547-2.1406 6.2031-2.1406z"/>
  </symbol>
  <symbol id="g" overflow="visible">
   <path d="m17.75-9.3281v9.3281h-4.9219v-7.1406c0-1.3203-0.03125-2.2344-0.09375-2.7344s-0.16797-0.86719-0.3125-1.1094c-0.1875-0.3125-0.44922-0.55469-0.78125-0.73438-0.32422-0.17578-0.69531-0.26562-1.1094-0.26562-1.0234 0-1.8242 0.39844-2.4062 1.1875-0.58594 0.78125-0.875 1.8711-0.875 3.2656v7.5312h-4.8906v-15.312h4.8906v2.2344c0.73828-0.88281 1.5195-1.5391 2.3438-1.9688 0.83203-0.42578 1.75-0.64062 2.75-0.64062 1.7695 0 3.1133 0.54688 4.0312 1.6406 0.91406 1.0859 1.375 2.6562 1.375 4.7188z"/>
  </symbol>
  <symbol id="f" overflow="visible">
   <path d="m17.75-9.3281v9.3281h-4.9219v-7.1094c0-1.3438-0.03125-2.2656-0.09375-2.7656s-0.16797-0.86719-0.3125-1.1094c-0.1875-0.3125-0.44922-0.55469-0.78125-0.73438-0.32422-0.17578-0.69531-0.26562-1.1094-0.26562-1.0234 0-1.8242 0.39844-2.4062 1.1875-0.58594 0.78125-0.875 1.8711-0.875 3.2656v7.5312h-4.8906v-21.281h4.8906v8.2031c0.73828-0.88281 1.5195-1.5391 2.3438-1.9688 0.83203-0.42578 1.75-0.64062 2.75-0.64062 1.7695 0 3.1133 0.54688 4.0312 1.6406 0.91406 1.0859 1.375 2.6562 1.375 4.7188z"/>
  </symbol>
  <symbol id="u" overflow="visible">
   <path d="m2.3594-21.281h4.8906v21.281h-4.8906z"/>
  </symbol>
  <symbol id="t" overflow="visible">
   <path d="m12.422-21.281v3.2188h-2.7031c-0.6875 0-1.1719 0.125-1.4531 0.375-0.27344 0.25-0.40625 0.6875-0.40625 1.3125v1.0625h4.1875v3.5h-4.1875v11.812h-4.8906v-11.812h-2.4375v-3.5h2.4375v-1.0625c0-1.6641 0.46094-2.8984 1.3906-3.7031 0.92578-0.80078 2.3672-1.2031 4.3281-1.2031z"/>
  </symbol>
  <symbol id="s" overflow="visible">
   <path d="m2.5781-20.406h5.875l7.4219 14v-14h4.9844v20.406h-5.875l-7.4219-14v14h-4.9844z"/>
  </symbol>
  <symbol id="r" overflow="visible">
   <path d="m2.1875-5.9688v-9.3438h4.9219v1.5312c0 0.83594-0.007813 1.875-0.015625 3.125-0.011719 1.25-0.015625 2.0859-0.015625 2.5 0 1.2422 0.03125 2.1328 0.09375 2.6719 0.070313 0.54297 0.17969 0.93359 0.32812 1.1719 0.20703 0.32422 0.47266 0.57422 0.79688 0.75 0.32031 0.16797 0.69141 0.25 1.1094 0.25 1.0195 0 1.8203-0.39062 2.4062-1.1719 0.58203-0.78125 0.875-1.8672 0.875-3.2656v-7.5625h4.8906v15.312h-4.8906v-2.2188c-0.74219 0.89844-1.5234 1.5586-2.3438 1.9844-0.82422 0.41406-1.7344 0.625-2.7344 0.625-1.7617 0-3.1055-0.53906-4.0312-1.625-0.92969-1.082-1.3906-2.6602-1.3906-4.7344z"/>
  </symbol>
  <symbol id="q" overflow="visible">
   <path d="m2.5781-20.406h8.7344c2.5938 0 4.582 0.57812 5.9688 1.7344 1.3945 1.1484 2.0938 2.7891 2.0938 4.9219 0 2.1367-0.69922 3.7812-2.0938 4.9375-1.3867 1.1562-3.375 1.7344-5.9688 1.7344h-3.4844v7.0781h-5.25zm5.25 3.8125v5.7031h2.9219c1.0195 0 1.8047-0.25 2.3594-0.75 0.5625-0.5 0.84375-1.2031 0.84375-2.1094 0-0.91406-0.28125-1.6172-0.84375-2.1094-0.55469-0.48828-1.3398-0.73438-2.3594-0.73438z"/>
  </symbol>
  <symbol id="p" overflow="visible">
   <path d="m2.3594-15.312h4.8906v15.031c0 2.0508-0.49609 3.6172-1.4844 4.7031-0.98047 1.082-2.4062 1.625-4.2812 1.625h-2.4219v-3.2188h0.85938c0.92578 0 1.5625-0.21094 1.9062-0.625 0.35156-0.41797 0.53125-1.2461 0.53125-2.4844zm0-5.9688h4.8906v4h-4.8906z"/>
  </symbol>
  <symbol id="o" overflow="visible">
   <path d="m14.719-14.828v3.9844c-0.65625-0.45703-1.3242-0.79688-2-1.0156-0.66797-0.21875-1.3594-0.32812-2.0781-0.32812-1.3672 0-2.4336 0.40234-3.2031 1.2031-0.76172 0.79297-1.1406 1.9062-1.1406 3.3438 0 1.4297 0.37891 2.543 1.1406 3.3438 0.76953 0.79297 1.8359 1.1875 3.2031 1.1875 0.75781 0 1.4844-0.10938 2.1719-0.32812 0.6875-0.22656 1.3203-0.56641 1.9062-1.0156v4c-0.76172 0.28125-1.5391 0.48828-2.3281 0.625-0.78125 0.14453-1.5742 0.21875-2.375 0.21875-2.7617 0-4.9219-0.70703-6.4844-2.125-1.5547-1.4141-2.3281-3.3828-2.3281-5.9062 0-2.5312 0.77344-4.5039 2.3281-5.9219 1.5625-1.4141 3.7227-2.125 6.4844-2.125 0.80078 0 1.5938 0.074219 2.375 0.21875 0.78125 0.13672 1.5547 0.35156 2.3281 0.64062z"/>
  </symbol>
 </defs>
 <g>
  <path d="m269.01 418.05c1.2031 6.3789-8.3555 8.1914-9.5703 1.8125-5.3047-27.945 8.0703-46.969 12.602-53.273 3.7852-5.2539 11.691 0.41406 7.9023 5.6953-4.1719 5.8164-15.469 21.945-10.934 45.766zm52.613-42.48h11.672c4.4531 1.6641 7.5586 2.918 9.9414 3.7852-1.3086 1.3672-2.1719 3.3086-2.1719 5.8086v4.7227c0 11.043 16.555 11.043 16.555 0v-4.7227c0-2.4961-0.83984-4.4414-2.168-5.8086 2.3906-0.86328 5.4805-2.1211 9.9336-3.7852h11.676c11.027 0 11.027-16.559 0-16.559h-13.172c-5.1172 0-9.7539 3.0898-14.559 4.8672-4.8008-1.7734-9.4531-4.8672-14.57-4.8672h-13.172c-11.004 0-11.004 16.559 0.035156 16.559zm13.328-29.887c7.7461-8.7266 7.6758-25.625 7.6758-36.676 0-6.4961-9.7344-6.4961-9.7344 0 0 7.8125 0.14062 24.16-5.2305 30.211-4.2969 4.8398 2.9727 11.309 7.2891 6.4648zm3.2812-79.746c-2.0234-5.2734-4.9102-10.723-8.9609-16.141-3.8789-5.2031-11.691 0.62891-7.8047 5.8242 3.4961 4.6797 5.9453 9.3398 7.6758 13.805 2.332 6.0625 11.418 2.5703 9.0898-3.4883zm59.449 197.36-20.082 7.0547-23.09-4.9102c-1.4844-0.26172-2.5039-0.34766-2.9297-0.34766s-1.4688 0.089844-2.918 0.34766l-22.961 4.8906-18.543-6.9727c-8.7461-3.2891-13.668 9.8242-4.9336 13.105l22.469 8.4609c3.0391-0.6875 25.301-5.8281 26.887-5.8281 1.668 0 23.84 5.1172 26.863 5.8086l23.891-8.3789c8.793-3.1016 4.1641-16.312-4.6523-13.23zm62.266-277.59h-1.0469l0.011718 2.3867c3.6914 2.3086 6.3438 6.3789 6.3945 12.215 0.066406 8.7148 0.089844 17.16 0.09375 22.938 1.7969 1.5469 2.9922 3.8242 2.9922 6.2617v23.445c7.6445 0.94141 14.816 2.5312 21.324 4.7305 5.2656 1.7852 7.2812 7.0625 4.5469 11.906-8.9023 15.746-24.227 28.422-43.172 34.961 0.078125 5.3477 0.035156 12.012-6.3555 13.883l-0.027343 6.2656 7.4258 6.1328c2.1562 2.0703 2.9062 3.7031 3.0977 5.332 0.23047 0.63281 0.37109 1.1602 0.37109 1.4727l-0.050781 9.6641c-0.054688 11.039-16.605 10.949-16.547-0.089844l0.023438-5.7305-7.8789-6.5078c-0.15625-0.12891-0.36328-0.39062-0.59375-0.74609-1.3438-1.2812-2.2617-3.1016-2.4023-5.4648l-0.011719-0.62891 0.085938-16.547c0.011719-0.78906 0.20703-1.6289 0.57031-2.457-17.086 1.2305-33.512-2.6875-46.918-10.652-0.6875 3.7344-6.1641 6.0039-8.9414 1.8242-2.4414-3.6523-5.957-9.5547-8.5273-17.359-1.7812-5.4648-3.1094-11.844-3.2266-19.059-0.078125-4.6797 0.33984-9.7109 1.457-15.062 1.3086-6.3516 10.852-4.3672 9.5273 1.9805-0.96484 4.5859-1.3086 8.8945-1.25 12.906 0.054687 3.1758 0.37891 6.1641 0.89453 8.9531 13.703-9.6445 44.066-16.742 48.652-17.641 10.742-2.0898 21.324-3.0859 31.383-3.0703v-8.4219c-7.6328 0.48047-15.652-4.375-15.652-14.578 0-4.3672 0-16.117-0.09375-28.422-0.050781-5.8867 2.5859-10.012 6.293-12.363l-0.035157-10.129c-0.34766-4.8398 3.3984-8.875 8.2617-8.875-2.2188-12.898-8.3555-33.746-25.02-52.891-2.0391-2.3398-2.5195-4.8906-1.9805-7.1562-6.9141-7.0391-15.371-13.766-25.727-19.691-5.6211-3.2266-0.80078-11.672 4.8438-8.4492 11.246 6.4414 20.473 13.793 28.043 21.539 2.457-0.38672 5.1172 0.37891 7.3086 2.8906 23.184 26.637 41.562 80.305 21.855 80.305zm-71.707 97.219c12.711 8.3203 29.848 12.035 47.828 8.5391 15.551-3.0234 28.539-10.832 37.359-20.988-27.262-5.2812-60.273 0.19922-85.188 12.449zm130.79 8.3711c-0.75781 16.832-6.1953 33.602-15.008 48.473 0.011718 0.39844 0 0.81641-0.042969 1.2617l-6.418 71.617s-0.44922 6.1875-3.6953 15.547c-3.1094 8.9531-8.9141 20.906-19.293 32.879-17.809 19.102-71.094 87.176-98.684 84.301h-51.375c-27.586 2.8906-80.871-65.199-98.688-84.301-10.543-12.152-21.582-31.723-22.973-48.352l-6.4414-71.695-0.039063-0.83594c-11.219-17.406-17.645-37.453-14.438-56.973 0.050782-0.25781 0.0625-0.78516-0.015625-1.457-2.1016-12.074-5.7969-37.84-5.7969-67.957 0-62.047 11.188-190.51 173.98-190.48 162.81-0.035156 174.17 128.41 174.17 190.48 0 30.117-3.5352 54.863-5.6445 66.938 0 0-0.11328 0.55859-0.16406 1.0195-0.34766 3.168 0.71484 6.3359 0.5625 9.5352zm-11.301-77.492c0-61.848-10.852-173.95-157.62-173.93-3.6914 0-7.3203 0.074219-10.84 0.21094v6.4922c0 1.7266-1.9492 4.2578-3.6172 4.7031-10.484 2.7812-19.02 7.3633-26.012 12.969 6.7148 0.14453 11.809 9.4375 4.957 14.895-12.453 9.9102-20.484 23.367-25.453 34.805-4.0039 9.1953-16.902 4.582-15.922-3.9297-2.1406 1.4102-4.1289 2.918-5.9883 4.5039-12.164 10.32-19.273 24.16-23.414 36.887-2.1406 6.5977-3.4062 12.758-4.1953 17.742 4.8555 0 8.6055 4.043 8.2617 8.875-0.19141 2.5547-0.14453 27.871-0.14453 27.871 0.011719 4.4141-3.8633 8.2812-8.2812 8.2812h-1.043v38.078c4.1602-0.30859 8.3789-0.42188 12.633-0.35938v-9.0781c0-11.031 16.559-11.031 16.559 0v10.203c23.102 2.7656 45.941 10.445 63.547 21.578 4.832 3.0586 5.4883 8.6953 1.5078 12.785-15.254 15.586-38.434 23.812-62.797 21.57 0.37891 0.87891 0.60938 1.7695 0.62109 2.6133l0.085937 16.812c0.011719 3.3164-1.4727 5.6445-3.5508 6.9648-2.25 2.4805-5.1523 4.75-7.3477 6.3789l0.027344 5.4766c0.042968 11.031-16.504 11.117-16.559 0.09375l-0.039063-9.2852c-0.023437-3.0195 1.2227-5.2188 3.0078-6.5977l7.8867-6.7148-0.039062-6.2656c-6.6289-1.9492-6.418-9.0312-6.332-14.48-18.176-6.6914-32.855-19.078-41.484-34.355-2.7383-4.8477-0.73438-10.121 4.5469-11.906 3.6836-1.25 7.5195-2.2852 11.457-3.1211-0.18359-0.69922-0.28125-1.4688-0.28125-2.2891v-46.355c0-4.4023 3.875-8.2773 8.2812-8.2773h1.0547l0.054687-11.93-0.9375 0.007813c-15.926 0-3.9922-33.953-2.2188-39.406 4.7031-14.492 13.16-31.422 28.441-44.398 7.9258-6.7266 17.594-12.297 29.305-15.895 3.1523-4.4922 6.793-8.9492 10.98-13.137-2.918-1.0586-4.8906-4.8789-2.0664-7.9531 8.5859-9.375 19.914-17.367 34.77-22.008l0.003907-2.2656c-127.19 10.035-136.86 114.31-136.86 173.14 0 28.676 3.2969 52.039 5.3086 63.668 0.98438 4.5859-0.28516 8.5898-0.078125 13.066 1.5 33.203 24.465 65.426 54.609 78.941 10.086 4.4531 3.3945 19.59-6.6914 15.125 0 0-3.9492-1.7305-9.9102-5.3984-7.1719-4.4258-14.309-9.9805-20.922-16.406l4.3516 48.48s0.42969 4.582 2.832 11.484c2.5352 7.3086 7.2734 17.227 16.055 27.352 14.836 15.922 63.617 76.195 84.391 78.734l14.027-0.023438c-0.33594-0.49219-0.59375-1.0352-0.81641-1.6172-0.67578-1.5352-0.8125-3.1289-0.49219-4.5938l0.066406-15.527c0.015625-3.2578 1.5117-5.5234 3.6016-6.8359 1.2891-0.89062 2.9609-1.4219 4.9883-1.3984l1.9141 0.027344c1.9219-9.0273 16.469-8.2109 16.348 2.1406l-0.09375 6.3672c-0.078125 6.3906-5.0859 7.9414-10.238 8.1914l-0.023438 5.1797 7.4688 7.6992 17.176 0.375 1.7148 0.17969c19.566-2.3984 69.988-63.98 84.113-79.105 8.2305-9.5469 17.465-25.504 18.688-38.617l4.2969-47.691c-9.0234 8.8242-19.453 16.07-30.766 21.012-10.086 4.4648-16.777-10.672-6.6797-15.125 0 0 3.1406-1.4219 7.9062-4.3516 24.707-15.238 51.352-48.66 46.316-79.211-0.46094-2.7227-0.29297-5.5625 0.26172-8.2539 2-11.57 5.332-35.035 5.332-63.867zm-280.78 56.684c8.8242 10.152 21.812 17.965 37.363 20.988 17.98 3.4961 35.117-0.21094 47.824-8.5469-24.914-12.254-57.922-17.734-85.188-12.441zm191.9 101.8c4.1758 5.7969 15.469 21.941 10.938 45.762-1.2109 6.3789 8.3555 8.1914 9.5703 1.8125 5.3047-27.945-8.0703-46.969-12.602-53.273-3.793-5.25-11.695 0.42969-7.9062 5.6992zm-4.3398 53.785c3.168 5.0664 6.9102 13.098 7.7852 19.215 0.95703 6.3555-8.4961 7.8242-9.5977 1.6055-1.25 0.80078-2.8008 1.2812-4.6797 1.2812l-58.621 0.003907h-57.559c-2.457 0-4.3867-0.82422-5.7383-2.1094l-0.14062 0.73828c-1.0625 6.4062-10.656 4.8047-9.6133-1.5977 0 0 0.3125-1.9414 1.332-5.0781 0.96484-2.9961 2.582-7.0938 5.1758-11.637 3.3828-5.9062 8.457-12.578 15.977-18.559 0.42188-0.48047 0.98047-0.87891 1.668-1.1797 0.69531-0.34766 1.3945-0.50391 2.0625-0.51562 15.012-2.6055 79.559-2.5586 93.969 0.11719 0.66797 0.015625 1.3555 0.19141 2.0312 0.55469 0.66797 0.28516 1.2031 0.6875 1.6055 1.1484 6.4531 5.1289 11.059 10.766 14.344 16.012zm-8.0117 5.5391c-2.9727-4.7383-6.8047-9.457-12.188-13.793-12.957-2.3281-75.738-2.4062-89.68-0.10156-5.5625 4.4844-9.5273 9.3984-12.32 13.883h114.18l0.007812 0.011719z"/>
  <use x="70" y="644" xlink:href="#j"/>
  <use x="90.550781" y="644" xlink:href="#d"/>
  <use x="104.359375" y="644" xlink:href="#a"/>
  <use x="123.347656" y="644" xlink:href="#n"/>
  <use x="142.242188" y="644" xlink:href="#c"/>
  <use x="155.628906" y="644" xlink:href="#a"/>
  <use x="174.617188" y="644" xlink:href="#e"/>
  <use x="204.410156" y="644" xlink:href="#m"/>
  <use x="224.453125" y="644" xlink:href="#l"/>
  <use x="252.453125" y="644" xlink:href="#k"/>
  <use x="272.617188" y="644" xlink:href="#i"/>
  <use x="282.214844" y="644" xlink:href="#h"/>
  <use x="311.390625" y="644" xlink:href="#b"/>
  <use x="330.625" y="644" xlink:href="#g"/>
  <use x="360.308594" y="644" xlink:href="#j"/>
  <use x="380.859375" y="644" xlink:href="#f"/>
  <use x="400.789062" y="644" xlink:href="#i"/>
  <use x="410.390625" y="644" xlink:href="#u"/>
  <use x="419.984375" y="644" xlink:href="#e"/>
  <use x="70" y="672" xlink:href="#t"/>
  <use x="82.183594" y="672" xlink:href="#d"/>
  <use x="95.992188" y="672" xlink:href="#b"/>
  <use x="115.226562" y="672" xlink:href="#h"/>
  <use x="154.152344" y="672" xlink:href="#c"/>
  <use x="167.535156" y="672" xlink:href="#f"/>
  <use x="187.46875" y="672" xlink:href="#a"/>
  <use x="216.207031" y="672" xlink:href="#s"/>
  <use x="239.640625" y="672" xlink:href="#b"/>
  <use x="258.878906" y="672" xlink:href="#r"/>
  <use x="278.8125" y="672" xlink:href="#g"/>
  <use x="308.492188" y="672" xlink:href="#q"/>
  <use x="329.015625" y="672" xlink:href="#d"/>
  <use x="342.820312" y="672" xlink:href="#b"/>
  <use x="362.058594" y="672" xlink:href="#p"/>
  <use x="371.65625" y="672" xlink:href="#a"/>
  <use x="390.648438" y="672" xlink:href="#o"/>
  <use x="407.242188" y="672" xlink:href="#c"/>
 </g>
</svg>
