<?xml version="1.0" encoding="UTF-8"?>
<svg width="700pt" height="700pt" version="1.1" viewBox="0 0 700 700" xmlns="http://www.w3.org/2000/svg" xmlns:xlink="http://www.w3.org/1999/xlink">
 <defs>
  <symbol id="j" overflow="visible">
   <path d="m18.766-1.125c-0.96875 0.5-1.9805 0.875-3.0312 1.125-1.043 0.25781-2.1367 0.39062-3.2812 0.39062-3.3984 0-6.0898-0.94531-8.0781-2.8438-1.9922-1.9062-2.9844-4.4844-2.9844-7.7344 0-3.2578 0.99219-5.8359 2.9844-7.7344 1.9883-1.9062 4.6797-2.8594 8.0781-2.8594 1.1445 0 2.2383 0.13281 3.2812 0.39062 1.0508 0.25 2.0625 0.625 3.0312 1.125v4.2188c-0.98047-0.65625-1.9453-1.1406-2.8906-1.4531-0.94922-0.3125-1.9492-0.46875-3-0.46875-1.875 0-3.3516 0.60547-4.4219 1.8125-1.0742 1.1992-1.6094 2.8555-1.6094 4.9688 0 2.1055 0.53516 3.7617 1.6094 4.9688 1.0703 1.1992 2.5469 1.7969 4.4219 1.7969 1.0508 0 2.0508-0.14844 3-0.45312 0.94531-0.3125 1.9102-0.80078 2.8906-1.4688z"/>
  </symbol>
  <symbol id="d" overflow="visible">
   <path d="m13.734-11.141c-0.4375-0.19531-0.87109-0.34375-1.2969-0.4375-0.41797-0.10156-0.83984-0.15625-1.2656-0.15625-1.2617 0-2.2305 0.40625-2.9062 1.2188-0.67969 0.80469-1.0156 1.9531-1.0156 3.4531v7.0625h-4.8906v-15.312h4.8906v2.5156c0.625-1 1.3438-1.7266 2.1562-2.1875 0.82031-0.46875 1.8008-0.70312 2.9375-0.70312 0.16406 0 0.34375 0.011719 0.53125 0.03125 0.19531 0.011719 0.47656 0.039062 0.84375 0.078125z"/>
  </symbol>
  <symbol id="a" overflow="visible">
   <path d="m17.641-7.7031v1.4062h-11.453c0.125 1.1484 0.53906 2.0078 1.25 2.5781 0.70703 0.57422 1.7031 0.85938 2.9844 0.85938 1.0312 0 2.082-0.14844 3.1562-0.45312 1.082-0.3125 2.1914-0.77344 3.3281-1.3906v3.7656c-1.1562 0.4375-2.3125 0.76562-3.4688 0.98438-1.1562 0.22656-2.3125 0.34375-3.4688 0.34375-2.7734 0-4.9297-0.70312-6.4688-2.1094-1.5312-1.4062-2.2969-3.3789-2.2969-5.9219 0-2.5 0.75391-4.4609 2.2656-5.8906 1.5078-1.4375 3.582-2.1562 6.2188-2.1562 2.4062 0 4.332 0.73047 5.7812 2.1875 1.4453 1.4492 2.1719 3.3828 2.1719 5.7969zm-5.0312-1.625c0-0.92578-0.27344-1.6719-0.8125-2.2344-0.54297-0.57031-1.25-0.85938-2.125-0.85938-0.94922 0-1.7188 0.26562-2.3125 0.79688s-0.96484 1.2969-1.1094 2.2969z"/>
  </symbol>
  <symbol id="n" overflow="visible">
   <path d="m9.2188-6.8906c-1.0234 0-1.793 0.17188-2.3125 0.51562-0.51172 0.34375-0.76562 0.85547-0.76562 1.5312 0 0.625 0.20703 1.1172 0.625 1.4688 0.41406 0.34375 0.98828 0.51562 1.7188 0.51562 0.92578 0 1.7031-0.32812 2.3281-0.98438 0.63281-0.66406 0.95312-1.4922 0.95312-2.4844v-0.5625zm7.4688-1.8438v8.7344h-4.9219v-2.2656c-0.65625 0.92969-1.3984 1.6055-2.2188 2.0312-0.82422 0.41406-1.8242 0.625-3 0.625-1.5859 0-2.8711-0.45703-3.8594-1.375-0.99219-0.92578-1.4844-2.1289-1.4844-3.6094 0-1.7891 0.61328-3.1016 1.8438-3.9375 1.2383-0.84375 3.1797-1.2656 5.8281-1.2656h2.8906v-0.39062c0-0.76953-0.30859-1.332-0.92188-1.6875-0.61719-0.36328-1.5703-0.54688-2.8594-0.54688-1.0547 0-2.0312 0.10547-2.9375 0.3125-0.89844 0.21094-1.7305 0.52344-2.5 0.9375v-3.7344c1.0391-0.25 2.0859-0.44141 3.1406-0.57812 1.0625-0.13281 2.125-0.20312 3.1875-0.20312 2.7578 0 4.75 0.54688 5.9688 1.6406 1.2266 1.0859 1.8438 2.8555 1.8438 5.3125z"/>
  </symbol>
  <symbol id="c" overflow="visible">
   <path d="m7.7031-19.656v4.3438h5.0469v3.5h-5.0469v6.5c0 0.71094 0.14062 1.1875 0.42188 1.4375s0.83594 0.375 1.6719 0.375h2.5156v3.5h-4.1875c-1.9375 0-3.3125-0.39844-4.125-1.2031-0.80469-0.8125-1.2031-2.1797-1.2031-4.1094v-6.5h-2.4219v-3.5h2.4219v-4.3438z"/>
  </symbol>
  <symbol id="e" overflow="visible">
   <path d="m12.766-13.078v-8.2031h4.9219v21.281h-4.9219v-2.2188c-0.66797 0.90625-1.4062 1.5703-2.2188 1.9844s-1.7578 0.625-2.8281 0.625c-1.8867 0-3.4336-0.75-4.6406-2.25-1.2109-1.5-1.8125-3.4258-1.8125-5.7812 0-2.3633 0.60156-4.2969 1.8125-5.7969 1.207-1.5 2.7539-2.25 4.6406-2.25 1.0625 0 2 0.21484 2.8125 0.64062 0.82031 0.42969 1.5664 1.0859 2.2344 1.9688zm-3.2188 9.9219c1.0391 0 1.8359-0.37891 2.3906-1.1406 0.55078-0.76953 0.82812-1.8828 0.82812-3.3438 0-1.457-0.27734-2.5664-0.82812-3.3281-0.55469-0.76953-1.3516-1.1562-2.3906-1.1562-1.043 0-1.8398 0.38672-2.3906 1.1562-0.55469 0.76172-0.82812 1.8711-0.82812 3.3281 0 1.4609 0.27344 2.5742 0.82812 3.3438 0.55078 0.76172 1.3477 1.1406 2.3906 1.1406z"/>
  </symbol>
  <symbol id="m" overflow="visible">
   <path d="m10.5-3.1562c1.0508 0 1.8516-0.37891 2.4062-1.1406 0.55078-0.76953 0.82812-1.8828 0.82812-3.3438 0-1.457-0.27734-2.5664-0.82812-3.3281-0.55469-0.76953-1.3555-1.1562-2.4062-1.1562-1.0547 0-1.8594 0.38672-2.4219 1.1562-0.55469 0.77344-0.82812 1.8828-0.82812 3.3281 0 1.4492 0.27344 2.5586 0.82812 3.3281 0.5625 0.77344 1.3672 1.1562 2.4219 1.1562zm-3.25-9.9219c0.67578-0.88281 1.4219-1.5391 2.2344-1.9688 0.82031-0.42578 1.7656-0.64062 2.8281-0.64062 1.8945 0 3.4453 0.75 4.6562 2.25 1.207 1.5 1.8125 3.4336 1.8125 5.7969 0 2.3555-0.60547 4.2812-1.8125 5.7812-1.2109 1.5-2.7617 2.25-4.6562 2.25-1.0625 0-2.0078-0.21094-2.8281-0.625-0.8125-0.42578-1.5586-1.0859-2.2344-1.9844v2.2188h-4.8906v-21.281h4.8906z"/>
  </symbol>
  <symbol id="l" overflow="visible">
   <path d="m0.34375-15.312h4.8906l4.125 10.391 3.5-10.391h4.8906l-6.4375 16.766c-0.64844 1.6953-1.4023 2.8828-2.2656 3.5625-0.86719 0.6875-2 1.0312-3.4062 1.0312h-2.8438v-3.2188h1.5312c0.83203 0 1.4375-0.13672 1.8125-0.40625 0.38281-0.26172 0.67969-0.73047 0.89062-1.4062l0.14062-0.42188z"/>
  </symbol>
  <symbol id="k" overflow="visible">
   <path d="m16.781-19.766v4.3125c-1.125-0.5-2.2266-0.875-3.2969-1.125-1.0625-0.25781-2.0703-0.39062-3.0156-0.39062-1.25 0-2.1797 0.17969-2.7812 0.53125-0.60547 0.34375-0.90625 0.88281-0.90625 1.6094 0 0.54297 0.20312 0.96875 0.60938 1.2812 0.40625 0.30469 1.1406 0.5625 2.2031 0.78125l2.25 0.45312c2.2695 0.44922 3.8789 1.1406 4.8281 2.0781 0.95703 0.92969 1.4375 2.2461 1.4375 3.9531 0 2.25-0.66797 3.9297-2 5.0312-1.3359 1.0938-3.3711 1.6406-6.1094 1.6406-1.3047 0-2.6055-0.125-3.9062-0.375-1.3047-0.23828-2.6055-0.59766-3.9062-1.0781v-4.4531c1.3008 0.69922 2.5625 1.2266 3.7812 1.5781 1.2188 0.34375 2.3906 0.51562 3.5156 0.51562 1.1562 0 2.0352-0.1875 2.6406-0.5625 0.61328-0.38281 0.92188-0.9375 0.92188-1.6562 0-0.63281-0.21094-1.125-0.625-1.4688-0.41797-0.34375-1.2461-0.65625-2.4844-0.9375l-2.0312-0.4375c-2.043-0.4375-3.5391-1.1328-4.4844-2.0938-0.9375-0.95703-1.4062-2.25-1.4062-3.875 0-2.0312 0.65625-3.5938 1.9688-4.6875s3.1953-1.6406 5.6562-1.6406c1.125 0 2.2734 0.085938 3.4531 0.25 1.1875 0.16797 2.4141 0.42188 3.6875 0.76562z"/>
  </symbol>
  <symbol id="i" overflow="visible">
   <path d="m2.3594-15.312h4.8906v15.312h-4.8906zm0-5.9688h4.8906v4h-4.8906z"/>
  </symbol>
  <symbol id="h" overflow="visible">
   <path d="m16.547-12.766c0.61328-0.94531 1.3477-1.6719 2.2031-2.1719 0.85156-0.5 1.7891-0.75 2.8125-0.75 1.7578 0 3.0977 0.54688 4.0156 1.6406 0.92578 1.0859 1.3906 2.6562 1.3906 4.7188v9.3281h-4.9219v-7.9844-0.35938c0.007813-0.13281 0.015625-0.32031 0.015625-0.5625 0-1.082-0.16406-1.8633-0.48438-2.3438-0.3125-0.48828-0.82422-0.73438-1.5312-0.73438-0.92969 0-1.6484 0.38672-2.1562 1.1562-0.51172 0.76172-0.77344 1.8672-0.78125 3.3125v7.5156h-4.9219v-7.9844c0-1.6953-0.14844-2.7852-0.4375-3.2656-0.29297-0.48828-0.8125-0.73438-1.5625-0.73438-0.9375 0-1.6641 0.38672-2.1719 1.1562-0.51172 0.76172-0.76562 1.8594-0.76562 3.2969v7.5312h-4.9219v-15.312h4.9219v2.2344c0.60156-0.86328 1.2891-1.5156 2.0625-1.9531 0.78125-0.4375 1.6406-0.65625 2.5781-0.65625 1.0625 0 2 0.25781 2.8125 0.76562 0.8125 0.51172 1.4258 1.2305 1.8438 2.1562z"/>
  </symbol>
  <symbol id="b" overflow="visible">
   <path d="m9.6406-12.188c-1.0859 0-1.9141 0.39062-2.4844 1.1719-0.57422 0.78125-0.85938 1.9062-0.85938 3.375s0.28516 2.5938 0.85938 3.375c0.57031 0.77344 1.3984 1.1562 2.4844 1.1562 1.0625 0 1.875-0.38281 2.4375-1.1562 0.57031-0.78125 0.85938-1.9062 0.85938-3.375s-0.28906-2.5938-0.85938-3.375c-0.5625-0.78125-1.375-1.1719-2.4375-1.1719zm0-3.5c2.6328 0 4.6914 0.71484 6.1719 2.1406 1.4766 1.418 2.2188 3.3867 2.2188 5.9062 0 2.5117-0.74219 4.4805-2.2188 5.9062-1.4805 1.418-3.5391 2.125-6.1719 2.125-2.6484 0-4.7148-0.70703-6.2031-2.125-1.4922-1.4258-2.2344-3.3945-2.2344-5.9062 0-2.5195 0.74219-4.4883 2.2344-5.9062 1.4883-1.4258 3.5547-2.1406 6.2031-2.1406z"/>
  </symbol>
  <symbol id="g" overflow="visible">
   <path d="m17.75-9.3281v9.3281h-4.9219v-7.1406c0-1.3203-0.03125-2.2344-0.09375-2.7344s-0.16797-0.86719-0.3125-1.1094c-0.1875-0.3125-0.44922-0.55469-0.78125-0.73438-0.32422-0.17578-0.69531-0.26562-1.1094-0.26562-1.0234 0-1.8242 0.39844-2.4062 1.1875-0.58594 0.78125-0.875 1.8711-0.875 3.2656v7.5312h-4.8906v-15.312h4.8906v2.2344c0.73828-0.88281 1.5195-1.5391 2.3438-1.9688 0.83203-0.42578 1.75-0.64062 2.75-0.64062 1.7695 0 3.1133 0.54688 4.0312 1.6406 0.91406 1.0859 1.375 2.6562 1.375 4.7188z"/>
  </symbol>
  <symbol id="f" overflow="visible">
   <path d="m17.75-9.3281v9.3281h-4.9219v-7.1094c0-1.3438-0.03125-2.2656-0.09375-2.7656s-0.16797-0.86719-0.3125-1.1094c-0.1875-0.3125-0.44922-0.55469-0.78125-0.73438-0.32422-0.17578-0.69531-0.26562-1.1094-0.26562-1.0234 0-1.8242 0.39844-2.4062 1.1875-0.58594 0.78125-0.875 1.8711-0.875 3.2656v7.5312h-4.8906v-21.281h4.8906v8.2031c0.73828-0.88281 1.5195-1.5391 2.3438-1.9688 0.83203-0.42578 1.75-0.64062 2.75-0.64062 1.7695 0 3.1133 0.54688 4.0312 1.6406 0.91406 1.0859 1.375 2.6562 1.375 4.7188z"/>
  </symbol>
  <symbol id="u" overflow="visible">
   <path d="m2.3594-21.281h4.8906v21.281h-4.8906z"/>
  </symbol>
  <symbol id="t" overflow="visible">
   <path d="m12.422-21.281v3.2188h-2.7031c-0.6875 0-1.1719 0.125-1.4531 0.375-0.27344 0.25-0.40625 0.6875-0.40625 1.3125v1.0625h4.1875v3.5h-4.1875v11.812h-4.8906v-11.812h-2.4375v-3.5h2.4375v-1.0625c0-1.6641 0.46094-2.8984 1.3906-3.7031 0.92578-0.80078 2.3672-1.2031 4.3281-1.2031z"/>
  </symbol>
  <symbol id="s" overflow="visible">
   <path d="m2.5781-20.406h5.875l7.4219 14v-14h4.9844v20.406h-5.875l-7.4219-14v14h-4.9844z"/>
  </symbol>
  <symbol id="r" overflow="visible">
   <path d="m2.1875-5.9688v-9.3438h4.9219v1.5312c0 0.83594-0.007813 1.875-0.015625 3.125-0.011719 1.25-0.015625 2.0859-0.015625 2.5 0 1.2422 0.03125 2.1328 0.09375 2.6719 0.070313 0.54297 0.17969 0.93359 0.32812 1.1719 0.20703 0.32422 0.47266 0.57422 0.79688 0.75 0.32031 0.16797 0.69141 0.25 1.1094 0.25 1.0195 0 1.8203-0.39062 2.4062-1.1719 0.58203-0.78125 0.875-1.8672 0.875-3.2656v-7.5625h4.8906v15.312h-4.8906v-2.2188c-0.74219 0.89844-1.5234 1.5586-2.3438 1.9844-0.82422 0.41406-1.7344 0.625-2.7344 0.625-1.7617 0-3.1055-0.53906-4.0312-1.625-0.92969-1.082-1.3906-2.6602-1.3906-4.7344z"/>
  </symbol>
  <symbol id="q" overflow="visible">
   <path d="m2.5781-20.406h8.7344c2.5938 0 4.582 0.57812 5.9688 1.7344 1.3945 1.1484 2.0938 2.7891 2.0938 4.9219 0 2.1367-0.69922 3.7812-2.0938 4.9375-1.3867 1.1562-3.375 1.7344-5.9688 1.7344h-3.4844v7.0781h-5.25zm5.25 3.8125v5.7031h2.9219c1.0195 0 1.8047-0.25 2.3594-0.75 0.5625-0.5 0.84375-1.2031 0.84375-2.1094 0-0.91406-0.28125-1.6172-0.84375-2.1094-0.55469-0.48828-1.3398-0.73438-2.3594-0.73438z"/>
  </symbol>
  <symbol id="p" overflow="visible">
   <path d="m2.3594-15.312h4.8906v15.031c0 2.0508-0.49609 3.6172-1.4844 4.7031-0.98047 1.082-2.4062 1.625-4.2812 1.625h-2.4219v-3.2188h0.85938c0.92578 0 1.5625-0.21094 1.9062-0.625 0.35156-0.41797 0.53125-1.2461 0.53125-2.4844zm0-5.9688h4.8906v4h-4.8906z"/>
  </symbol>
  <symbol id="o" overflow="visible">
   <path d="m14.719-14.828v3.9844c-0.65625-0.45703-1.3242-0.79688-2-1.0156-0.66797-0.21875-1.3594-0.32812-2.0781-0.32812-1.3672 0-2.4336 0.40234-3.2031 1.2031-0.76172 0.79297-1.1406 1.9062-1.1406 3.3438 0 1.4297 0.37891 2.543 1.1406 3.3438 0.76953 0.79297 1.8359 1.1875 3.2031 1.1875 0.75781 0 1.4844-0.10938 2.1719-0.32812 0.6875-0.22656 1.3203-0.56641 1.9062-1.0156v4c-0.76172 0.28125-1.5391 0.48828-2.3281 0.625-0.78125 0.14453-1.5742 0.21875-2.375 0.21875-2.7617 0-4.9219-0.70703-6.4844-2.125-1.5547-1.4141-2.3281-3.3828-2.3281-5.9062 0-2.5312 0.77344-4.5039 2.3281-5.9219 1.5625-1.4141 3.7227-2.125 6.4844-2.125 0.80078 0 1.5938 0.074219 2.375 0.21875 0.78125 0.13672 1.5547 0.35156 2.3281 0.64062z"/>
  </symbol>
 </defs>
 <g>
  <path d="m388.48 202.25c5.2305-3.8516 11.004 3.9805 5.7734 7.8359l-20.418 15.055c-5.2188 3.8516-10.992-3.9805-5.7617-7.8281zm-14.645 40.953 25.484-18.781c5.2188-3.8516-0.57031-11.688-5.7852-7.8359l-25.473 18.781c-5.2188 3.8477 0.55469 11.688 5.7734 7.8359zm0-54.191 9.7617-7.1953c5.2266-3.8477-0.55469-11.688-5.7773-7.8359l-9.7422 7.1914c-5.2344 3.8594 0.53906 11.691 5.7578 7.8398zm82.25-9.793c-0.20703 0.62891-0.48047 1.1992-0.81641 1.7148 4.3125 2.1445 7.5469 6.4336 7.5898 12.887 0.074219 8.7188 0.09375 17.16 0.10156 22.938 1.8047 1.5469 2.9961 3.8242 2.9961 6.2617l-0.003906 23.379c7.4922 0.92578 14.711 2.4961 21.469 4.7891 5.2695 1.7852 7.2852 7.0625 4.5469 11.91-8.9414 15.793-24.328 28.492-43.332 35.012 0.078126 5.3477 0.011719 11.922-6.3242 13.828l-0.011719 6.3047 7.4922 6.1836c2.1797 1.9648 2.9961 3.8359 3.1289 5.6914 0.14062 0.4375 0.22266 0.80078 0.22266 1.0312l-0.042969 9.6602c-0.050781 11.039-16.609 10.961-16.555-0.078125l0.035156-5.7383-6.8281-5.6211c-4.2461-3.6445-3.9688-6.6523-4.0039-8.5117l0.011718-18.176c-23.453 1.5-45.602-6.7031-60.316-21.762-1.707-1.7461-2.5586-3.7734-2.6133-5.7578l0.14062-16.574c0.10156-11.039 16.648-10.891 16.559 0.14062l-0.035156 2.4648c20.676-9.9805 45.898-15.793 69.887-15.77v-8.3711c-7.6328 0.48828-15.656-4.3672-15.656-14.578 0-4.3672 0.011719-16.117-0.085937-28.422-0.0625-6.5508 3.2148-10.926 7.5977-13.105-0.80078-1.2266-1.2695-2.7539-1.2812-4.6094-0.023437-2.6055-0.035156-4.3633-0.066406-4.7812-0.34766-4.8398 3.3594-8.8594 8.2148-8.8594 0.66797 0 0.71094-0.023438 0.71094-0.023438l-0.71094 0.023438c-2.2188-12.906-8.3164-33.773-24.98-52.914-2.0312-2.3477-2.5156-4.8945-1.9805-7.1562-6.9219-7.0391-15.383-13.766-25.727-19.684-5.6328-3.2266-0.80078-11.676 4.832-8.4492 11.246 6.4414 20.469 13.793 28.055 21.539 2.4531-0.38672 5.1172 0.37891 7.3086 2.8906 24.203 27.805 29.059 58.625 30.051 70.672 0.42969 5.582-3.3203 9.6367-8.1992 9.6367zm-70.129 97.227c12.711 8.3281 29.855 12.047 47.828 8.5469 15.551-3.0234 28.539-10.836 37.363-20.988-27.266-5.2969-60.277 0.18359-85.191 12.441zm-12.121-69.367 15.086-11.121c5.2266-3.8516-0.55469-11.688-5.7734-7.8359l-15.086 11.117c-5.2188 3.8555 0.55469 11.691 5.7734 7.8398zm-40.734 37.887c0.20703-11.031-16.336-11.344-16.547-0.3125l-0.14453 7.8438c-0.21094 11.031 16.336 11.34 16.547 0.30859zm-0.59766 94.215c7.75-8.7188 7.6836-25.625 7.6836-36.688 0-6.4844-9.7383-6.4844-9.7383 0.011718 0.003907 7.8164 0.15625 24.152-5.2188 30.211-4.3086 4.8477 2.9688 11.328 7.2734 6.4648zm15.25 61.297c-11.594 0-48.602-4.8203-57.922 4.7266-4.5312 4.6484 2.4297 11.453 6.9648 6.793 5.1055-5.2188 44.367-1.7812 50.953-1.7812 6.5703 0 45.707-3.4336 50.812 1.7812 4.543 4.6602 11.496-2.1445 6.9648-6.793-9.3125-9.5508-46.188-4.7266-57.773-4.7266zm168.84-115.68c-0.76562 16.996-6.3008 33.906-15.262 48.883l-0.042969 0.85156-6.4336 71.703c-0.78516 9.3359-5.4336 21.211-9.7344 29.242-3.207 5.9961-7.582 12.59-13.238 19.105-6.8359 7.3398-14.461 15.781-21.723 23.891-17.148 19.074-38.961 45.992-62.059 56.863-5.2695 2.4648-9.6094 3.4883-13.016 3.5352h-54.887c-3.4102-0.042969-7.75-1.0586-13.008-3.5352-23.105-10.871-44.918-37.789-62.066-56.863-7.2695-8.0977-14.887-16.547-21.727-23.891-5.6562-6.5195-10.023-13.109-13.238-19.105-4.3008-8.0312-8.9492-19.906-9.7344-29.242l-6.4414-71.703-0.035157-0.72266c-5.1172-8.3203-9.0391-17.305-11.57-26.691-2.543-9.8008-4.4844-20.551-2.8633-30.402 0.039062-0.25391 0.050781-0.77734-0.023438-1.457-1.2891-7.3789-3.3047-20.641-4.5078-35.738-0.77344-9.7148-1.293-20.539-1.293-32.211 0-114.31 47.691-190.51 173.99-190.48 162.79-0.035157 174.16 128.41 174.16 190.48 0 30.117-3.5352 54.863-5.6328 66.941 0 0-0.11719 0.55469-0.16406 1.0117-0.36328 3.1719 0.6875 6.3477 0.54688 9.5352zm-11.309-77.484c0-61.848-10.84-173.96-157.61-173.93-3.6914 0-7.3086 0.066406-10.852 0.20703v6.4922c0 1.7305-1.9492 4.2617-3.6172 4.7031-10.488 2.7812-19.027 7.3633-26.008 12.969 6.7148 0.15234 11.801 9.4414 4.9453 14.902-12.449 9.9102-20.48 23.367-25.453 34.805-4 9.1953-16.891 4.582-15.914-3.9297-2.1211 1.4102-4.1211 2.918-5.9805 4.5039-12.164 10.32-19.281 24.16-23.414 36.887-2.1445 6.5977-3.4062 12.758-4.1953 17.742 4.8555 0 8.6055 4.043 8.2539 8.8828-0.19141 2.5547-0.15625 27.871-0.15625 27.871 0.003906 4.4062-3.8633 8.2812-8.2695 8.2812h-1.0547v38.078c4.1602-0.30859 8.3906-0.42578 12.645-0.36328v-9.0664c0-11.039 16.555-11.039 16.555 0v10.191c23.102 2.7734 45.949 10.449 63.555 21.582 4.8281 3.0508 5.4805 8.6953 1.4883 12.785-15.254 15.578-38.426 23.816-62.797 21.578 0.39062 0.875 0.61719 1.7695 0.62109 2.6133l0.085937 16.723c0.015625 2.8789-1.0977 5.0117-2.7539 6.3906l-8.1406 6.7695 0.027344 5.7383c0.050781 11.039-16.496 11.105-16.555 0.078126l-0.050781-9.6602c0.0625-2.5469 0.98438-4.7617 3.1914-6.5781l7.707-6.3633-0.027343-6.25c-6.625-1.9531-6.4219-9.0391-6.3398-14.488-18.172-6.6914-32.855-19.086-41.492-34.363-2.7383-4.8477-0.72656-10.125 4.5469-11.91 3.6836-1.25 7.5078-2.2891 11.445-3.125-0.17188-0.69922-0.26953-1.4609-0.26953-2.2891v-46.355c0-4.4062 3.875-8.2695 8.2773-8.2695h1.0547l0.042969-11.934h-0.92578c-15.922 0-4-33.957-2.2305-39.406 4.7031-14.488 13.16-31.426 28.449-44.398 7.9297-6.7266 17.602-12.297 29.309-15.895 3.1523-4.4922 6.793-8.9414 10.98-13.137-2.9297-1.0586-4.8906-4.8789-2.0703-7.957 8.5859-9.3672 19.918-17.367 34.777-22.008v-2.2695c-101 7.7656-136.84 74.414-136.84 173.17 0 11.172 0.5 21.531 1.2305 30.773 1.1484 14.387 2.8516 25.816 4.0781 32.895 0.98047 4.5859-0.28516 8.5977-0.078124 13.07 0.29297 6.4219 1.4102 13.105 2.8633 18.672 2.1992 8.1914 5.6719 16 10.18 23.168 9.2188 14.668 25.777 30 41.562 37.09 2.8281 1.25 4.3398 3.3438 4.8281 5.6016 0.125 0.58203 0.18359 1.1797 0.17969 1.7695-0.15625 4.7031-0.28125 26.473 2.4648 53.258 0.66016 6.4453-9.0273 7.4492-9.6875 0.99609-2.0156-19.711-2.5156-36.398-2.5742-45.859-0.61719-0.11719-1.25-0.33984-1.8945-0.62109 0 0-5.8516-2.5586-14.043-8.0586-5.9375-3.9883-11.559-8.4688-16.754-13.402l4.3242 48.137s0.22266 2.3516 1.2031 6.1562c1.0703 4.1367 3.0469 10.031 6.6289 16.715 2.6836 5 6.2617 10.457 11.047 15.973 6.8555 7.3594 14.375 15.695 21.645 23.781 13.293 14.805 43.586 51.207 62.156 54.859 0 0 0.60938 0.12891 1.1094 0.12891h12.465l-0.011718-5.0508c-0.011719-7.6445 4.4922-12.293 9.9609-13.945v-5.2578c-0.8125-0.42578-1.6133-1.0195-2.3672-1.7969l-9.8164-10.121c-0.54688-0.56641-0.99609-1.1484-1.3555-1.7461-0.77734-1.125-1.2383-2.4805-1.2383-4.0664l0.085937-16.957c0.023437-5.4883 4.2109-8.1484 8.3984-8.1602h2.0938l0.027344-8.332c-14.281-0.51562-38.543-2.582-45.383-10.148-7.4023-8.1797 4.8711-19.281 12.273-11.098 1.2539 0.58203 2.9922 1.1016 5.0508 1.5625h71.652c2.1797-0.41406 4.0547-0.95703 5.4727-1.5625 7.4023-8.1797 19.68 2.918 12.27 11.098-6.7461 7.4688-30.414 9.582-44.777 10.129l-0.066406 16.734c-0.027344 6.5625-5.2344 8.0586-10.5 8.2812l-0.015625 4.8984 7.7227 7.957c3.6641 3.7812 2.8711 8.3711 0.23047 11.297v7.4297c5.2539 1.7539 9.4922 6.3516 9.5078 13.766l0.011719 5.1016h12.215c0.49219 0 1.1133-0.13281 1.1133-0.13281 18.559-3.6523 48.848-40.051 62.148-54.852 7.2617-8.0938 14.785-16.426 21.645-23.777 4.7812-5.5117 8.3672-10.969 11.047-15.977 3.5898-6.6875 5.5547-12.578 6.6367-16.715 0.99219-3.8008 1.2109-6.1562 1.2109-6.1562l4.2578-47.434c-8.9609 8.7148-19.281 15.859-30.477 20.758-0.66016 0.29297-1.3047 0.50391-1.9414 0.63281-0.066406 9.4531-0.56641 26.152-2.5703 45.852-0.66797 6.4531-10.355 5.4609-9.6875-0.99609 2.9023-28.324 2.5938-50.227 2.457-52.457-0.023437-0.42188-0.011718-0.8125 0.054688-1.1914 0.10156-2.7656 1.5859-5.4805 4.9961-6.9766 0 0 3.1484-1.4219 7.9141-4.3516 24.707-15.223 51.359-48.652 46.316-79.207-0.44922-2.7266-0.28516-5.5508 0.25391-8.25 1.9883-11.59 5.3008-35.055 5.3008-63.883zm-280.77 56.684c8.8242 10.152 21.812 17.965 37.363 20.988 17.977 3.5 35.125-0.21875 47.824-8.5469-24.906-12.254-57.926-17.734-85.188-12.441zm94.652 105.07 11.469 0.023437c1.9141 0.875 5.9766 2.6836 10.023 3.9141-1.2383 1.3555-2.0273 3.2461-2.0273 5.6602v4.7227c0 11.039 16.555 11.039 16.555 0v-4.7227c0-2.5469-0.86719-4.5039-2.2188-5.8672l9.9961-3.7305h11.672c11.039 0 11.039-16.555 0-16.555h-11.672c-0.91797-0.13281-1.9141-0.11719-2.957 0.11719-1.0547 0.14453-13.094 4.7695-13.094 4.7695s-11.973-4.5938-13.031-4.75c-1.0469-0.21875-2.0312-0.25391-2.9531-0.11328l-11.723-0.023438c-11.043-0.015625-11.07 16.531-0.039063 16.555z"/>
  <use x="70" y="644" xlink:href="#j"/>
  <use x="90.550781" y="644" xlink:href="#d"/>
  <use x="104.359375" y="644" xlink:href="#a"/>
  <use x="123.347656" y="644" xlink:href="#n"/>
  <use x="142.242188" y="644" xlink:href="#c"/>
  <use x="155.628906" y="644" xlink:href="#a"/>
  <use x="174.617188" y="644" xlink:href="#e"/>
  <use x="204.410156" y="644" xlink:href="#m"/>
  <use x="224.453125" y="644" xlink:href="#l"/>
  <use x="252.453125" y="644" xlink:href="#k"/>
  <use x="272.617188" y="644" xlink:href="#i"/>
  <use x="282.214844" y="644" xlink:href="#h"/>
  <use x="311.390625" y="644" xlink:href="#b"/>
  <use x="330.625" y="644" xlink:href="#g"/>
  <use x="360.308594" y="644" xlink:href="#j"/>
  <use x="380.859375" y="644" xlink:href="#f"/>
  <use x="400.789062" y="644" xlink:href="#i"/>
  <use x="410.390625" y="644" xlink:href="#u"/>
  <use x="419.984375" y="644" xlink:href="#e"/>
  <use x="70" y="672" xlink:href="#t"/>
  <use x="82.183594" y="672" xlink:href="#d"/>
  <use x="95.992188" y="672" xlink:href="#b"/>
  <use x="115.226562" y="672" xlink:href="#h"/>
  <use x="154.152344" y="672" xlink:href="#c"/>
  <use x="167.535156" y="672" xlink:href="#f"/>
  <use x="187.46875" y="672" xlink:href="#a"/>
  <use x="216.207031" y="672" xlink:href="#s"/>
  <use x="239.640625" y="672" xlink:href="#b"/>
  <use x="258.878906" y="672" xlink:href="#r"/>
  <use x="278.8125" y="672" xlink:href="#g"/>
  <use x="308.492188" y="672" xlink:href="#q"/>
  <use x="329.015625" y="672" xlink:href="#d"/>
  <use x="342.820312" y="672" xlink:href="#b"/>
  <use x="362.058594" y="672" xlink:href="#p"/>
  <use x="371.65625" y="672" xlink:href="#a"/>
  <use x="390.648438" y="672" xlink:href="#o"/>
  <use x="407.242188" y="672" xlink:href="#c"/>
 </g>
</svg>
